<?xml version="1.0" encoding="UTF-8"?><svg id="EXPANDED" xmlns="http://www.w3.org/2000/svg" viewBox="0 0 595.28 595.28"><defs><style>.cls-1{fill:#00aeff;}</style></defs><path class="cls-1" d="M459.56,333.63c.22-.91,.28-1.91,0-2.83-.17-.57-.21-1.2-.06-1.78,.24-.92,.22-1.91,.15-2.89-.06-.94,.25-2-.11-2.87-.21-.52-.36-1.08-.35-1.67,.05-2.2,.07-4.4,.2-6.58,.04-.76-.21-1.64,.28-2.32-.72-.87-.01-2.04,.02-3.11,.02-.95-.62-1.9-.36-2.84,.15-.54,.18-1.14,.06-1.7-.6-2.78,.02-5.68-.21-8.5-.04-.45,.13-1.16-.03-1.31-.85-.82,.07-1.88-.27-2.7-.5-1.22-.16-2.27,.28-3.34,.11-.26,.12-.85,0-.97-.67-.67-.44-1.6-.49-2.46-.12-2.06,.34-4.18-.46-6.18-.18-.45,.1-1.25,.2-1.87,.05-.3,.3-.77,.24-.84-1.12-1.36,.68-3.55-.43-4.94-.17-.21-.19-1.06-.03-1.27,.61-.8,.19-1.34,.06-2.21-.3-2,.58-4.15-.07-6.14-.07-.21,.08-.64,.23-.86,.34-.51,.25-.86,.02-1.43-.2-.49-.3-1.36-.1-1.77,.32-.66,.35-.97,.06-1.71-.28-.7-.41-1.86-.18-2.55,.8-2.39-.31-4.52-.3-6.78,0-.38-.24-1-.13-1.12,.65-.73,.33-1.68,.37-2.52,.03-.76,.14-1.78-.16-2.25-.63-.99,.59-1.43,.19-2.29-.16-.35-.39-.75-.52-1.16-.06-.2-.1-.41-.1-.61,0-.29,.04-.57,.14-.84,.3-.78,.15-1.4-.11-1.96-.25-.56-.5-1.08-.47-1.78,.03-.8-.26-1.83-.48-2.72-.26-1.33-.56-2.05-.98-2.75-.2-.36-.51-.67-.88-1.04-.37-.37-.83-.79-1.48-1.25-.15-.11-.32-.34-.44-.53-.46-.77-.93-1.56-1.55-2.21-.41-.38-.88-.72-1.34-1.04-.47-.31-.96-.59-1.38-.94-1.06-.82-2.03-1.8-3.27-2.43-.49-.28-1.1-.39-1.68-.52-.57-.14-1.12-.25-1.54-.44-1.66-.88-3.59-1.06-5.45-1-.27,0-.36,.02-.54,.04l-.47,.05-.95,.1c-.63,.06-1.26,.11-1.89,.1-.71,0-1.29-.68-2.22-.09-.36,.22-1.53-.33-2.36-.42-1.27-.13-2.55-1.1-3.86-.03-.06,.05-.53-.05-.56-.13-.37-.94-1.22,1.18-1.79,.3-.16-.24-1.18-.17-2.23-.21-.25-.01-.51,0-.76,.03-1.15,.17-2.63,.42-3.99,.5-.42,.03-.8,.09-1.16,.2-.03-.22-.09-.44-.24-.61-.64-.79-2.56-1.35-1.62-2.81-.12-.09-.23-.18-.36-.26-.61-.36-.71-.86-.76-1.56-.05-.62-.43-1.43-.9-1.8-.52-.41-.91-.51-1.06-1.02-.55-1.75-.58-3.75-2.18-5.09-.12-.1-.07-.4-.15-.58-.7-1.69-1.59-3.35-2.63-4.77-1.09-1.47-1.58-3.06-2.23-4.65-.34-.83-.79-1.65-1.29-2.33-.93-1.28-1.84-2.52-2.17-4.05-.08-.36-.19-.72-.4-1.03-.65-.93-.37-2.43-1.65-2.99-.09-.04-.06-.39-.13-.58-.54-1.4-1.48-2.59-1.96-4.01-.32-.95-1.51-1.46-1.84-2.56-.06-.2-.39-.32-.54-.52-.29-.41-.82-.95-.75-1.27,.16-.75-.33-1.2-.53-1.78-.28-.83-1.14-1.47-.78-2.53,.07-.21-.45-.71-.72-1.06-.27-.34-.64-.61-.84-.98-.29-.53-.65-1.06-.95-1.6-.15-.27-.29-.54-.39-.81l-.22-.58c-.09-.24-.17-.48-.24-.72-.24-.84-.76-1.57-1.23-2.25-.48-.68-.91-1.32-1.06-2.14-.15-.83-.51-1.74-.91-2.56-.56-1.14-1.12-2.37-1.89-3.22-.4-.44-.78-1.13-1.16-1.9l-.57-1.2c-.1-.2-.19-.4-.29-.6l-.14-.29c-.01-.08-.07-.03-.11,0l-.14,.07c-.33,.18-.67,.14-.93,.35-1.37,1.1-2.62,1.83-3.9,2.5-1.27,.67-2.56,1.27-3.83,2-.74,.43-2.05,.53-2.35,.87-.95,1.07-1.47,1.21-2.75,1.49-.26,.06-.58,.16-.92,.3l-.26,.11-.13,.06-.07,.03c-.09,.04-.19,.08-.28,.12-.36,.18-.68,.42-.81,.67-.58,1.12-1.67,1.37-2.58,1.89-.51,.29-1.04,.55-1.56,.81-.5-.45-.98-.93-1.03-1.7-.01-.24-.75-.65-1.17-.96-.41-.3-.9-.49-1.26-.84-1.03-.99-2.36-1.93-2.92-3.07-.5-.99-1.94-1.2-2.21-2.18-.14-.49-.47-.96-.86-1.37-.53-.57-1.04-1.17-1.83-1.54-.82-.39-1.51-1.38-2.24-2.11-.17-.17-.23-.51-.39-.59-1.7-.81-2.71-2.45-4.06-3.67-.4-.37-.62-1.34-.89-1.4-.88-.19-1.06-.55-1.36-1.37-.25-.67-1.14-1.65-1.75-1.82-1.37-.38-2.07-1.49-2.95-2.35-1.54-1.5-2.98-3.1-4.41-4.71l-1.07-1.21-.27-.3-.4-.43-1.07-1.13c-1.43-1.5-2.88-3.02-4.35-4.5-1.17-1.18-2.5-2.18-3.56-3.6-.71-.95-1.51-1.86-2.31-2.57l-.27-.25-.14-.13s-.05-.06-.07-.05l-.07,.07c-.18,.18-.37,.36-.56,.54-.37,.35-.75,.67-1.14,.99l-1.64,1.35c-.88,.74-1.65,1.68-2.4,2.58-.76,.9-1.5,1.77-2.45,2.49-1.34,1.03-2.8,2.41-3.88,3.87l-.23,.31-.12,.18c-.08,.12-.18,.24-.28,.34-.2,.22-.43,.41-.68,.55-.81,.47-1.48,1.17-2.11,1.89-.61,.7-1.56,1.21-1.91,2.07-.2,.51-.49,1-.91,1.4-1.55,1.49-3.09,2.98-4.69,4.41-.55,.49-.99,1.28-1.8,1.41-.09,1.11-1.4,1.42-2.16,2.13-.67,.64-.87,1.75-1.71,2.22-.48,.27-.92,.66-1.22,1.13-1.49,2.35-3.94,3.91-5.73,6.02-.28,.33-.89,.71-.89,.93,.04,1.17-1.34,1.25-1.68,2.06-.49,1.2-1.45,1.68-2.51,2.11-.25,.1-.67,.51-.67,.67,0,.94-.8,1.41-1.36,2.04-1.34,1.51-3.12,2.65-3.95,4.6-.18,.43-.93,.79-1.44,1.15-.24,.17-.74,.32-.75,.41-.15,1.74-2.93,1.97-3.11,3.71-.03,.27-.6,.86-.86,.9-.98,.13-1.07,.79-1.57,1.48-1.17,1.59-3.27,2.46-4.19,4.29-.1,.19-.5,.38-.75,.43-.59,.11-.77,.42-1,.98-.2,.48-.73,1.15-1.15,1.3-.68,.23-.92,.42-1.22,1.14-.28,.69-.99,1.57-1.64,1.89-2.22,1.08-2.91,3.34-4.48,4.89-.27,.26-.52,.86-.68,.87-.97,.04-1.4,.92-2,1.48-.55,.51-1.33,1.13-1.44,1.66-.24,1.13-1.4,.57-1.71,1.45-.25,.71-.47,1.77-1.31,1.93-1.19,.24-.79,1.49-1.71,1.85-.52,.2-.99,.73-1.5,1.06-1.51,.97-1.65,1.15-2.43,3.26-.05,.12-.18,.26-.3,.35-.5,.36-1.07,.63-1.49,1.05-.53,.53-.88,1.26-1.43,1.75-.68,.6-1.55,.97-2.24,1.57-.55,.48-.88,1.4-1.43,1.7-2.23,1.19-3.4,3.54-5.16,5.25-.5,.49-1.37,.41-1.6,1.47-.07,.33-.86,.66-1.5,1.04-.04,0-.08-.02-.13-.02-.33,0-.58-.1-.81-.23-.11-.07-.22-.14-.33-.22,.02-.02-.16-.04-.3-.06l-.44-.06c-.3-.04-.6-.08-.92-.11-8.68-1.01-18.58-1.09-28.47-.76l-5.16,.2c-1.89,.07-3.78,.25-5.68,.45-2.53,.29-5.05,.79-6.96,1.41-2.09,.7-4.19,1.02-6.37,1.39-2.17,.39-4.42,.84-6.67,1.78-2.42,1.02-5.12,2.65-7.7,4.22l-1.2,.73c-.44,.26-.85,.56-1.26,.84-.82,.58-1.6,1.18-2.33,1.79-1.47,1.22-2.75,2.46-3.96,3.55-.49,.84-.96,1.75-1.3,2.58-.82,2.03-1.38,3.91-1.8,5.88-.2,.99-.37,1.99-.47,3.05-.07,.83-.14,1.69-.22,2.61-.24,2.68-.27,6.92-.03,9.47,.27,2.82,.57,4.09,.48,6.55-.32,8.47-1.2,16.91-.4,25.94,.06,.66-.12,1.81-.14,2.75-.15,8.54-.13,17.41,.16,25.55,.29,8.47,0,16.18-.15,24.19-.08,4.21-.05,8.57,.08,12.48,.24,7.34,.48,14.47,.07,21.57-.1,1.67-.16,3.43-.11,5.15,.16,5.28-.78,10.93,.1,16.04,.06,.36-.13,1.76-.15,2.71-.16,7.02,.13,13.98-.1,20.95-.16,4.66,.67,9.32,.46,14.63-.04,.98,.2,2.18,.24,3.35,.07,2.34,.29,5.72,.08,6.9-.49,2.79-.25,5.72-.34,8.56-.03,1.01-.03,2.06-.01,3.11,0,.41,.04,1.33,.09,2.13,.03,.81,.19,1.61,.31,2.41,.57,3.19,1.76,6.14,3.03,8.71,.27,.49,1.16,1.78,2.46,3.04,.64,.64,1.39,1.26,2.12,1.83,.77,.54,1.5,1.09,2.2,1.46,2.67,1.58,5.59,2.45,8.59,2.9,1.08,.19,2.18,.22,3.29,.25,.74,0,1.49-.02,2.23-.03,1.47-.02,2.94-.04,4.39-.06,2.9-.02,5.68,.01,8.06,.21,4.18,.35,8.81-.52,12.32-.02,1.78,.25,4.03,.35,6.24,.36,3.08,.02,6.2,.09,9.43-.2,3.4-.31,8.1-.1,12.22-.09,.93,0,2.09,.2,2.75,.14,7.05-.63,14.46-.19,21.68-.27,2.16-.03,5.52,.51,6.43,.36,3.01-.49,4.51-.36,7.65,0,2.57,.3,7.82,.36,10,.05,4.91-.7,9.97-.41,14.88-.42,17.06-.05,34.13,.45,51.19,.5,3.37,0,7.12-.23,10.34,.03,2.13,.17,4.4,.25,6.69,.19,3.56-.1,7.35,.16,10.95,.3,4.83,.19,8.87-.47,13.85-.15,3.52,.22,7.41,.28,10.98,0,2.22-.17,4.64-.21,6.9-.06,3.58,.24,7.42,.22,11.21,.15,3.66-.06,7.75,.25,11.14-.11,1-.11,2.04-.2,3.12-.26,.29-.01,.57-.03,.86-.05,.43-.03,.86-.06,1.3-.09,.87-.04,1.75-.2,2.65-.34,6.6-1.11,12.48-5.38,15.77-11.16,.49,.19,.98,.34,1.49,.45,.3,.06,.6,.12,.91,.16l.46,.05,.23,.02h.3c1.98,.01,4.06-.34,5.97-1.12,1.3-.52,2.53-1.16,3.71-1.89,.81-.45,1.52-1.08,1.97-1.69,.49-.67,1.15-1.02,1.91-1.34,.73-.35,1.52-.72,2.07-1.41,.57-.78,1-1.88,1.44-2.87,.49-.97,.97-1.84,2.05-2.19,.06-.25,.12-.52,.15-.76,.07-.59,.24-1.07,.46-1.54,.2-.48,.48-.94,.81-1.48,.56-.95,1.01-2.65,.88-3.71-.09-1.16-.4-1.67-.25-2.63,.03-.2,.06-.4,.09-.61l.08-.41c.06-.27,.11-.55,.17-.82,.12-.55,.23-1.1,.31-1.65,.16-1.11,.18-2.24-.22-3.4-.06-.17,.12-.47,.14-.71,.15-2.2,.13-4.49-.16-6.59-.29-2.18,0-4.18,.15-6.24,.08-1.09,.05-2.21-.08-3.22-.24-1.89-.48-3.73-.07-5.57,.1-.43,.16-.88,.11-1.33-.16-1.36,.78-2.82-.1-4.14-.06-.09,.13-.45,.15-.7,.16-1.81-.13-3.61,.1-5.41,.16-1.2-.67-2.4-.46-3.78,.04-.25-.2-.56-.24-.86-.07-.6-.29-1.48-.08-1.78,.49-.72,.25-1.48,.34-2.21,.13-1.05-.34-2.22,.47-3.16,.16-.18-.07-1.02-.15-1.54-.08-.51-.29-1.01-.3-1.52-.03-1.46-.3-3.1,.1-4.33,.35-1.08-.52-2.27-.02-3.18,.25-.46,.35-1.04,.36-1.61,.02-.79,.09-1.6-.2-2.43-.31-.88-.1-2.09-.09-3.15,0-.24,.2-.54,.14-.71-.63-1.82-.19-3.73-.27-5.59-.03-.56,.51-1.42,.36-1.66-.49-.78-.36-1.16,0-1.97,.3-.66,.36-2.02,.05-2.58-.7-1.27-.41-2.57-.42-3.84-.05-4.4,.45-8.81,.5-13.21,0-.87-.23-1.84,.03-2.67,.17-.55,.25-1.14,.19-1.73-.1-.92,.16-1.9,.3-2.83,.19-1.25-.47-2.29-.15-3.57Zm-91.53-161.19c.3-.24,.66-.39,1.03-.51,.68-.21,.91-1.2,1.76-1.2,.1,0,.21,0,.31-.01,.05,.02,.07,.05,.11,.07,.06,.04,.11,.07,.16,.08,.09,.03,.15,.02,.21-.02,.11-.08,.22-.26,.36-.33,.07-.04,.14-.2,.23-.48,.18-.52,.31-.16,.32,.22,0,.25,.13-.06,.29-.36,.12-.19,.27-.31,.19,.12-.05,.23,.2-.09,.23,.06,.03,.2-.08,.59-.11,.79-.01,.08,.05,.09,.16,0,.6-.43,.6,.11,.5,.37l-.07,.2s-.03,.06-.03,.1l.08,.3c.12,.4,.25,.79,.42,1.15,.33,.73,.8,1.39,1.56,1.92,.11,.08,.22,.36,.18,.48-.34,1.02,.53,1.68,.81,2.51,.25,.73,.88,1.07,1.32,1.6,.39,.46,.19,1.68,.55,1.9,1.15,.67,.49,1.94,1.31,2.74,.85,.84,1.54,1.83,2,2.95,.33,.8,1.13,1.35,1.1,2.02-.07,1.33,.72,2.22,1.2,3.26,.67,1.44,1.48,2.8,2.14,4.24,.28,.61,.19,1.77,.52,1.92,1,.45,1.94,1.23,1.95,1.89,0,1.14,1.23,1.75,1.11,2.3-.22,1.05,1.02,.74,.85,1.35-.3,1.11,.81,1.76,1.35,2.5,.64,.87,.41,2.14,1.12,2.93,.29,.33,.52,.71,.59,1.14,.23,1.59,1.44,2.8,1.98,4.26,.13,.34,.91,.52,.84,.75-.3,.94,.42,1.54,.73,2.26,.37,.85,.75,1.74,1.3,2.47,.45,.59,.3,1.35,1.35,1.64,.63,.17-.15,.91,.3,1.32,.55,.5,1.02,1.63,1.16,2.37,.11,.58,.5,1.03,.71,1.56-.49-.02-.97-.04-1.39-.08-9.26-.8-17.53,.31-26.28,.3-1.49,0-3.87,.24-4.34,.13-2.84-.65-6.5-.33-9.77-.37-2.95-.03-6.9-.14-8.71,.16-3.85,.63-5.54-.59-8.86-.19-2.7,.33-6.28,.92-9.1,.44-4.01-.68-6.41,.49-9.97,.1-2.02-.22-4.82-.18-7.19-.31-6.93-.38-7.87-.35-15.94,.59-.47,.06-1.25,.06-1.83,.03-2.39-.1-4.76-.31-7.15-.31-2.98,0-6,.27-8.92,.23-3.61-.06-7.08-.41-10.69-.47-.73-.01-1.5,0-2.28,.03,.2-.04,.39-.09,.55-.16,.85-.37,1.98-.7,2.39-1.35,.64-1.03,1.79-.44,2.38-1.2,.26-.33,.71-.59,.84-.94,.32-.82,.67-1.29,1.73-1.31,1.19-.02,2.2-1.01,3.49-1.11,.51-.04,.96-.94,1.53-1.31,1.97-1.28,4.1-2.25,6-3.74,2.61-2.05,6.04-2.93,8.64-5.11,.42-.35,.93-.53,1.46-.6,1-.12,1.5-.89,2.21-1.45,.2-.16,.46-.52,.57-.49,1.14,.35,2.13-.37,2.66-1.01,.77-.94,2-.43,2.64-1.31,1.17-1.62,3.36-1.68,4.95-2.69,.46-.29,1.04-.5,1.35-.89,1-1.29,2.46-1.8,3.89-2.29,.32-.11,.5-.03,.7-.42,.45-.87,1.94-.69,2.21-1.83,1.2,.15,1.74-.72,2.49-1.41,.28-.26,1.14,.31,1.45-.64,.17-.53,1.09,.25,1.44-.63,.18-.46,.9-.8,1.42-1.13,.86-.54,2.19-.85,2.55-1.56,.68-1.33,2-.45,2.71-1.29,.38-.45,1.21-.3,1.66-.71,.74-.67,1.47-1.29,2.56-1.24,.31,.01,.84-.14,.96-.34,.67-1.2,1.92-1.62,3.04-2.16,1.2-.57,2.19-1.72,3.72-1.51,.25,.03,.65-.31,.9-.56,.48-.48,1.01-.97,1.33-1.53,.47-.83,1.58-.5,1.86-.93,.46-.72,1.15-.88,1.75-1.24,1.44-.85,2.89-2.01,4.43-2.31,1.73-.35,2.72-1.43,4.24-1.86,1.29-.37,2.1-1.69,3.53-1.93,.34-.06,.86-.12,1.2-.4,.34-.28,.67-.65,1.07-.77,2.3-.73,2.59-.81,3.78-1.77Zm-133.48,48.49c.7-.64,1.43-1.15,2.22-1.65,.84-.54,2.28-.76,2.56-2.33,.07-.38,1.32-.81,1.93-1.33,.83-.71,1.97-1.51,2.26-2.33,.46-1.31,1.82-1.16,2.29-2.18,.2-.44,.63-.88,.69-1.3,.16-.96,.43-1.59,1.57-2.03,1.27-.5,2.14-1.9,3.5-2.52,.53-.24,.82-1.34,1.35-1.95,1.83-2.09,3.9-3.92,5.6-6.21,2.34-3.13,5.83-5.4,8.13-8.65,.37-.52,.88-.92,1.44-1.2,1.04-.52,1.41-1.51,2.05-2.36,.18-.24,.38-.72,.5-.73,1.3-.09,2.21-1.23,2.63-2.09,.62-1.26,2.05-1.23,2.54-2.39,.89-2.12,3.23-3.06,4.72-4.72,.43-.48,1.01-.93,1.25-1.45,.79-1.72,2.24-2.82,3.66-3.89,.32-.24,.53-.23,.66-.71,.29-1.07,1.92-1.48,1.96-2.74,1.32-.33,1.71-1.43,2.36-2.43,.24-.38,1.29-.14,1.41-1.23,.07-.61,1.22-.17,1.4-1.21,.09-.54,.79-1.18,1.27-1.72,.8-.89,2.16-1.74,2.39-2.6,.43-1.63,2.05-1.25,2.62-2.39,.31-.61,1.23-.79,1.63-1.39,.65-.98,1.29-1.9,2.47-2.29,.34-.11,.88-.48,.95-.73,.45-1.5,1.7-2.42,2.78-3.41,1.16-1.06,1.97-2.63,3.65-3.02,.27-.06,.63-.58,.84-.93,.41-.68,.87-1.39,1.08-2.09,.16-.52,.56-.8,.94-1.03,.19-.03,.33,.03,.31-.12-.08-.51,.22-.54,.37-.72,.25-.31,.52-.8,.82-1.05,.15-.1,.29-.27,.41,.18,.18,.55,.33,.71,.49,.86,.16,.14,.35,.28,.42,.6,.06,.27,.24,.28,.45,.35l.08,.03s.02,0,.04,.02l.12,.1c.15,.13,.3,.26,.45,.4,.28,.28,.54,.59,.74,.97,.19,.35,.47,.9,.88,1.2,.42,.3,.93,.58,1.21,.97,1.66,2.3,1.86,2.6,3.31,3.66,.37,.27,.66,.62,.93,.99,.49,.68,1.58,.71,1.92,1.62,.66,1.79,2.32,2.82,3.62,4.12,.37,.37,.8,.64,1.26,.82,.86,.33,1.18,1.2,1.55,2.05,.49,1.11,2.01,.84,2.51,2.1,.14,.35,.89,.57,1.21,.96,.44,.54,.72,1.2,1.13,1.78,.16,.23,.5,.49,.73,.53,1.27,.24,2.07,1.39,2.62,2.24,.78,1.19,1.53,2.31,2.58,3.15-.57,.42-1.02,1-1.82,1.16-.77,.16-1.52,.51-2.06,1.11-.33,.37-.77,.66-1.26,.75-.79,.15-1.49,.56-2.17,1-.65,.43-1.57,.57-2.03,1.23-.27,.39-.61,.74-1.04,.96-1.62,.82-3.22,1.67-4.87,2.42-.57,.26-1.09,.83-1.81,.67-.29,.98-1.47,.81-2.26,1.21-.7,.35-1.08,1.29-1.89,1.44-.47,.08-.92,.29-1.26,.62-1.73,1.63-4.13,2.22-6.07,3.53-.31,.21-.9,.34-.94,.54-.19,1.07-1.39,.68-1.83,1.3-.65,.92-1.57,1.03-2.56,1.07-.24,0-.68,.23-.71,.38-.17,.85-.95,1.01-1.55,1.4-1.44,.92-3.19,1.35-4.27,2.84-.24,.33-.95,.4-1.45,.56-.24,.08-.7,.04-.72,.12-.45,1.52-2.9,.8-3.38,2.32-.07,.23-.68,.58-.91,.52-.87-.22-1.07,.36-1.63,.81-1.3,1.05-3.28,1.13-4.42,2.48-.12,.14-.51,.18-.73,.14-.53-.1-.74,.12-1.05,.55-.26,.37-.85,.8-1.24,.79-.63-.02-.87,.07-1.27,.62-.37,.53-1.15,1.09-1.77,1.16-2.11,.24-3.13,2.05-4.78,2.93-.28,.15-.61,.6-.75,.56-.84-.29-1.38,.37-2,.67-.57,.28-1.36,.58-1.56,1.02-.42,.95-1.32,.04-1.75,.74-.35,.56-.74,1.44-1.49,1.31-1.07-.19-.96,1.09-1.82,1.1-.49,0-.99,.33-1.49,.46-1.48,.37-1.64,.49-2.7,2.13-.06,.1-.21,.18-.33,.21-.5,.15-1.04,.21-1.49,.45-.56,.3-.99,.85-1.56,1.11-.7,.32-1.52,.36-2.23,.67-.57,.25-1.02,.97-1.55,1.05-2.15,.33-3.59,2.06-5.43,3.03-.52,.27-1.26-.09-1.65,.8-.15,.34-1.27,.31-1.91,.56-.99,.38-2.38,.04-2.81,1.5-.02,.06-.41,.16-.47,.1-.72-.68-.32,1.51-1.16,.97-.23-.15-.93,.32-1.72,.69-.19,.09-.37,.19-.53,.32-.76,.6-1.69,1.39-2.67,2.02-.71,.46-1.2,.9-1.59,1.72-.07,.15-.17,.3-.27,.44-1.76,.04-3.51,.06-5.26,.06-2.05,0-3.81-.38-6.06-.33,2.22-2.13,4.24-4.47,6.51-6.54Zm187.17,207.06c.22,2.58-.31,5.69-.17,8.47,.24,4.56,.43,8.94-.13,13.35-.16,1.26-.28,3.79-.16,4.74l.11,.8,.08,.55c-.01,.36,.03,.75-.06,1.11-.1,.75-.36,1.5-.78,2.16-.79,1.38-2.16,2.39-3.56,2.98-.77,.29-1.57,.51-2.42,.61l-.69,.06-1.2,.02c-.8,0-1.59,.02-2.39,.02-3.17,.01-6.3-.08-9.21-.54-.95-.15-3.4-.04-4.97,.06-3.06,.19-6.32,.37-8.91,.71-3.8,.51-7.66-.31-9.75-.07-3.53,.41-6.73,.23-9.99,.25-7.86,.06-16.42,.39-23.45-.08-7.92-.52-14.41-.04-21.65-.39-6.17-.29-12.44,.49-18.87,.02-1.52-.11-3.84-.31-5.82-.22-2.03,.08-4.23,.25-6.13,.17-11.11-.45-12.53-.52-19.54-.25-1.78,.07-3.6,.03-5.37-.04-3.26-.14-6.42,.62-9.94,.21-6.86-.8-14.41-.35-21.73-.35-2.06,0-4.05,.11-5.83,.31-3.34,.37-6.66-.01-10.09-.35-4.48-.44-7.97,.83-12.93,.3-1.39-.15-4.1,.22-6.09,.17-2.77-.07-5.38-.34-8.14-.46-1.09-.05-2.75,0-3.54,.14-4.23,.73-9.7,.48-13.63,.27-3.96-.21-7.78-.41-11.56-.45-.95,0-1.89,0-2.83,0-.74,.01-1.48,.03-2.23,.04-.96,0-1.91-.13-2.91-.41-.3-.08-.93-.52-1.04-.74-.51-.86-1.13-1.65-1.66-2.56-.54-.89-.91-1.94-.92-2.97-.01-.7-.02-1.36-.03-2-.02-.81-.07-1.6-.12-2.37-.1-1.54-.24-3.02-.32-4.59-.13-2.74,.6-7.42,.38-9.1-.71-5.28,.45-9.15,.1-14.26-.37-5.35-.53-10.93-.43-16.6,.07-4.04-.39-8.06-.05-10.77,.67-5.4,.38-10.8,.43-16.17,.01-7.42,.03-14.88,.04-22.31,.03-3.17,.64-7.81,.42-9.13-.68-4.02-1.17-9.3-.86-12.09,.52-4.76-.29-9.95,.07-11.99,.68-3.88-.57-5.26-.14-7.47,.78-3.97,.09-9.07-.06-13.36-.17-5.01,.62-9.81,.35-14.65-.11-1.99-.14-4.09,0-6.01,.53-7.1,0-14.78,.19-22.06,.04-1.68-.57-4.13-.4-4.95,.7-3.29,.33-7.36,.39-11.03v-.82l.02-.41v-.32c.02-.27,.05-.55,.09-.82,.09-.54,.23-1.07,.42-1.58,.38-1.02,.98-1.94,1.68-2.73,.29-.31,.61-.58,.96-.78,.36-.24,.59-.32,1.34-.7,1.14-.58,2.27-1.19,3.41-2.01,.13,2.22,.89,4.2,2.93,5.46,.6,.37,1.11,.97,1.76,1.18,.4,.13,.87,.52,1.34,.4,.07-.01,.07-.03,.19-.03l.83-.02c.56,0,1.12,0,1.67,0,1.11,.02,2.21,.08,3.25,.16,5.01,.4,10.6,.42,15.65,.75,4.02,.26,5.55-.52,8.77-.22,2.88,.27,6.18-.04,9.37,0,14.06,.21,28.15-.14,42.23,.01,3.76,.04,7.24,.2,10.88,.4,3.85,.21,8.51,1.08,13.71,.16,1.25-.22,5.95,.36,9.14,.42,4.33,.08,9.77,.33,12.88-.05,4.97-.6,8.38,.47,12.52,.08,1.8-.17,4.24-.18,5.58-.43,3.13-.57,5.65-.82,10.09-.33,4.97,.55,11.34,.17,16.88,.69,2.18,.2,6.07-.37,9.26-.42,11.01-.18,21.93-.02,33.13-.43,7.68-.28,15.55-.2,23.46-.14l5.93,.04h3.14l.09,.02h.17l.35,.02c.23,.02,.45,.08,.68,.09,1.79,.3,3.45,1.38,4.6,2.89,.4,.47,.6,1.06,.79,1.62,.1,.59,.19,1.17,.08,1.74l-.02,.2-.02,.26c-.01,.27-.03,.54-.04,.8-.02,.53-.04,1.06-.04,1.58,0,1.04,.02,2.06,.06,3.07,.1,2.02,.2,4.02,.3,6.1,.04,1.2,.24,3.08,.16,3.44-.85,3.9-.69,9.63-.38,13.23,.46,5.27-.58,9.21-.1,13.82,.87,8.44-.12,17.62,0,26.47,.04,2.54-.06,5.43,.14,7.56,.66,7.03,.41,14.17,.16,21.18-.06,1.56-.21,2.13,.03,3.84,.55,3.83-.32,9.54,.55,13.21-.7,4.62-.19,8.8,.05,13.42,.09,1.74-.81,4.01-.13,7.41,.38,1.9-.74,3.92-.13,7.34,.32,1.78,.28,5.5,.31,8.38,.06,4.75-.29,10.93,.15,13.99,.84,5.77-.57,9.27-.16,14.07Zm22.85-87.68c-.52,2.04-.04,3.72-.39,5.59-.29,1.59,.49,3.21,.02,4.87-.11,.39-.31,.99-.22,1.5,.08,.52,.25,1.09,.17,1.58-.45,2.87-.52,3.23-.25,5.04,.07,.46,.03,.93-.04,1.39-.14,.84,.62,1.66,.21,2.56-.8,1.77-.35,3.72-.35,5.61,0,.53,.11,1.04,.31,1.5,.37,.86-.01,1.72-.35,2.6-.44,1.16,.83,2.06,.3,3.34-.15,.36,.22,1.06,.17,1.57-.07,.71-.34,1.39-.46,2.1-.05,.28,0,.71,.14,.91,.73,1.09,.48,2.5,.27,3.52-.42,2.05-.79,3.94,.06,5.91,.06,.15,.03,.51-.06,.62-.77,.91-.3,2.1-.43,3.16-.11,.92,.29,1.64,.44,2.45,.13,.71-.6,1.91-.38,2.35,.71,1.36-.45,2.36-.1,3.68,.37,1.38,.53,2.82,.43,4.28-.07,1.04,.39,2.08,.05,2.78-.67,1.39-.38,2.79-.43,4.17-.07,1.92,.03,3.84-.04,5.76-.03,.82-.64,2.02-.42,2.36,.68,1.04,1.17,2.4,.86,3.12-.52,1.23,.29,2.57-.07,3.09-.68,1,.57,1.36,.14,1.93-.78,1.02-.09,2.34,.06,3.45,.17,1.29-.62,2.53-.35,3.78,.11,.51,.14,1.05,0,1.55-.26,.92-.26,1.87-.22,2.83,.02,.48,.04,.96,.07,1.44,0,.24,.01,.48,0,.72v.35l-.06,.18c-.07,.2,.57,.59,.36,.69-.39,.18-.49,.39-.54,.63-.08,.23-.03,.5-.14,.71-.14,.25-.23,.51-.38,.75-.06,.12-.12,.25-.16,.39-.06,.12-.11,.25-.15,.39-.04,.23-.25,.35-.37,.51-.12,.17-.17,.37-.04,.8,.08,.27-.1,.27-.3,.25-.22-.03-.46-.09-.52,.1-.13,.51-.86,.87-1.33,.92-.41,0-.64,.33-1.01,.36-.21,.04-.35,.27-.53,.41-.18,.16-.38,.29-.65,.05-.14-.13-.34-.15-.55-.12-.14,0-.27,.04-.4,.09l.02-1.26c.04-2.94-.21-6.35,.28-8.99-.72-3.38-.01-7.9,.02-12.04,.02-3.68-.62-7.35-.36-11.02,.15-2.11,.18-4.44,.06-6.59-.6-10.78,.02-22.02-.21-32.95-.04-1.73,.13-4.5-.03-5.08-.85-3.17,.07-7.28-.27-10.47-.5-4.74-.16-8.78,.28-12.95,.11-1,.12-3.31,0-3.77-.67-2.6-.44-6.2-.49-9.53-.12-7.98,.34-16.18-.46-23.96-.18-1.74,.1-4.83,.2-7.26,.05-1.17,.3-2.99,.24-3.26-1.12-5.28,.68-13.76-.43-19.13-.17-.82-.19-4.1-.03-4.92,.61-3.12,.19-5.21,.06-8.56-.15-3.87,0-7.89,.09-11.9,.05-2.01,.09-4.02,.08-6.01l-.02-1.49-.02-.74-.07-1.1-.1-1.11c-.05-.37-.12-.73-.19-1.09l-.22-1.08-.32-1.05c-.29-1.18-1.11-3.59-1.59-4.78-.56-1.41-1.23-2.53-2.06-3.57-.84-1.03-1.84-1.99-3.18-3-.58-.43-1.31-.91-2.08-1.41-.15-.09-.31-.18-.47-.27,3.53,.17,7.06-.15,10.59,0h.18s.06,.02,.09,.03l.16,.04,.32,.1c.21,.07,.39,.23,.58,.34,.2,.12,.35,.49,.54,.64,.18,.22,.41,.24,.84-.04,.11-.07,.22,.09,.33,.27,.1,.22,.18,.46,.31,.56,.31,.35,.56,.84,1.03,.83,.19,0,.32,.05,.39,.14,.06,.1,.07,.23,.07,.36,.03,.24-.04,.5,.24,.57,.27,.06,.35,.3,.65,.32,.35,.03,.57,.12,.71,.27,.15,.14,.15,.37-.04,.68-.17,.33-.21,.65-.18,.96-.02,.16-.03,.33-.06,.49l-.03,.12-.05,.28c-.04,.18-.09,.37-.16,.54-.2,.56,.37,1.57,.42,2.39,.18,2.84,.02,5.66,.43,8.55,.56,3.96-.3,8.12,.37,12.15,.11,.64,.02,1.3-.17,1.91-.37,1.13,.07,2.12,.22,3.19,.04,.31,.24,.8,.16,.89-.85,1.01-.69,2.49-.38,3.41,.46,1.36-.58,2.38-.1,3.57,.87,2.18-.12,4.55,0,6.83,.04,.66-.06,1.4,.14,1.95,.66,1.81,.41,3.66,.16,5.47-.06,.4-.21,.55,.03,.99,.55,.99-.32,2.46,.55,3.41-.7,1.19-.19,2.27,.05,3.46,.09,.45-.81,1.03-.13,1.91,.38,.49-.74,1.01-.13,1.89,.32,.46,.28,1.42,.31,2.16,.06,1.23-.29,2.82,.15,3.61,.84,1.49-.57,2.39-.16,3.63,.22,.67-.31,1.47-.17,2.18,.24,1.18,.43,2.31-.13,3.45-.16,.33-.28,.98-.16,1.22,.74,1.41,.51,2.99,.45,4.48-.07,1.6,.47,3.33-.45,4.83-.15,.24-.04,.88,.06,1.28,.19,.79,.37,1.63,.71,2.3,.51,.98-.31,1.98-.07,2.52,.41,.91,.23,1.74,.25,2.58,.06,2.03,.39,4.24-.08,6.05Z"/></svg>