<?xml version="1.0" encoding="UTF-8"?><svg id="EXPANDED" xmlns="http://www.w3.org/2000/svg" viewBox="0 0 595.28 595.28"><defs><style>.cls-1{fill:#00aeff;}</style></defs><path class="cls-1" d="M417.42,282.43c-.55-1.99-1.55-3.73-2.71-5.01-1.67-1.89-3.67-3.45-5.7-4.42-2.03-1-4.06-1.3-5.55-1.23-1.06,.07-2.06,.14-3.05,.21-.69,.04-1.36,.06-2.03,.06-1.34,0-2.65-.01-3.97-.02-6.38,.06-13.33,.39-19.04-.08-6.43-.52-11.7-.04-17.58-.39-5.01-.29-10.1,.49-15.32,.02-1.23-.11-3.11-.31-4.73-.22-1.65,.08-3.44,.25-4.98,.17-2.21-.11-3.94-.2-5.38-.27-.3-.06-.52-.11-.71-.19-.19-.08-.35-.17-.52-.29-.17-.12-.36-.26-.52-.51-.08-.13-.13-.28-.12-.44,0-.08,.01-.16,.02-.24l.02-.12v-.06l.03-.25c.14-2.65-.62-5.21-.21-8.07,.8-5.57,.35-11.7,.35-17.64,0-1.68-.11-3.28-.31-4.74-.37-2.71,.01-5.41,.35-8.19,.44-3.64-.83-6.47-.29-10.5,.15-1.13-.22-3.33-.17-4.94,.07-2.25,.34-4.37,.46-6.61,.05-.89,0-2.23-.14-2.87-.73-3.43-.48-7.87-.27-11.07,.42-6.44,.79-12.4-.06-18.6-.06-.46-.03-1.61,.06-1.95,.77-2.86,.3-6.62,.43-9.93,.01-.36,.02-.71,.02-1.06,0-.54-.01-1.06-.02-1.57-.02-1.2-.07-2.34-.12-3.45-.07-1.1-.07-2.22-.22-3.23-.15-1.01-.22-2.09-.51-2.94-.39-1.7-.9-3.56-1.85-5.27-.22-.43-.46-.84-.75-1.21-.28-.37-.53-.74-.82-1.04-.6-.58-1.08-1.1-1.53-1.31-.34-.19-.66-.37-.98-.55-.33-.17-.67-.31-1-.46-.64-.34-1.32-.54-1.96-.81-.65-.24-1.31-.42-1.96-.61-.66-.11-1.32-.28-1.98-.32-2.63-.29-5.41,.07-7.89,1.67l-.9,.69c-.3,.23-.61,.45-.85,.73-.52,.54-1.06,1.05-1.54,1.64-.49,.61-.98,1.37-1.45,2.07-.25,.33-.45,.79-.66,1.22l-.63,1.3c-.76,1.85-1.53,3.7-2.3,5.57-.31,.74-.62,1.48-.94,2.22l-.69,1.58c-1.34,2.99-2.19,6.18-3.35,8.07-2.32,3.78-3.75,7.93-5.5,11.93-2.35,5.55-4.72,11.12-7.07,16.67-1.03,2.36-3.05,5.6-3.26,6.67-.64,3.27-1.86,7.41-3.02,9.38-1.98,3.36-2.87,7.56-3.84,8.94-1.85,2.64-1.14,4.16-2.23,5.64-1.97,2.67-2.94,6.75-4.16,10.02-1.42,3.82-3.67,7.1-4.95,10.82-.52,1.53-1.16,3.11-1.9,4.5-2.72,5.11-4.66,11.05-7.14,16.43-.57,1.24-.77,3.31-1.19,3.86-1.68,2.19-2.62,5.37-3.83,8.1-1.43,3.23-2.92,6.58-4.11,9.79-.96,2.61-2.31,4.58-2.67,7.47-.21,1.74-1.6,2.39-2.26,4.48-.8,2.56-2.69,6.8-3.95,9.24-1.03,2-1.77,4.16-2.71,6.18-1.11,2.4-1.46,5.13-2.98,7.35-.84,1.23-2.17,4.49-2.83,6.52-.29,.86-.57,1.7-.85,2.55l-.31,.92c-.13,.41-.26,.82-.37,1.24-.18,.86-.34,1.72-.37,2.61-.22,3.54,.98,7.12,3.3,9.95,.57,.67,1.31,1.42,2.19,2.06l.31,.23,.08,.05,.17,.09c.12,.05,.23,.1,.34,.15,.45,.19,.84,.28,.94,.19,.74-.57,2.05-.32,2.89-.15,1.06,.29,1.37-.09,1.52-.42,.16-.36,.21-.76,.71-.86,1.22-.34,.98-1.17,1.05-1.89,.06-1,.09-2,.18-2.99,.03-.26,.34-.6,.28-.72-.23-.56-.61-.87-.38-1.66,.26-1.15-.14-1.02-.06-1.52,.04-.27,.15-.65,.25-.95,.05-.15,.1-.28,.14-.37v-.02s.04-.04,.04-.04h0s.01-.02,.02-.03c.08,.02,.19,.05,.34,.12h0l1.04,.44h0v-.03l.03-.04,.04-.08,.08-.16,.15-.33,.31-.65,.61-1.32c1.61-3.55,3.11-7.27,4.52-11.04,.96-2.56,1.91-5.11,2.87-7.69,.66-1.72,1.27-3.47,1.58-4.91,.68-3.15,3.01-5.48,4.2-8.79,1.28-3.57,1.98-8.98,4.65-11.42,.13-.49,.29-1,.4-1.46,.54-2.25,1.39-3.91,2.61-6.09,1.07-1.91,2.43-5.07,3.01-7.07,.64-2.22,.76-3.28,1.62-5.08,2.96-6.22,6.44-12.18,8.55-19.25,.15-.51,.68-1.3,.99-2.01,2.84-6.33,5.61-12.98,7.92-19.18,2.4-6.45,5.1-12.11,7.77-18.04,1.4-3.12,2.75-6.4,3.86-9.37,2.09-5.59,4.12-11.01,6.74-16.16,.62-1.21,1.23-2.5,1.73-3.81,1.52-4.01,4.17-7.87,4.97-12.04,.06-.29,.68-1.27,1-1.97,1.18-2.59,2.25-5.22,3.33-7.84l.73-1.76c.02-.06,.04-.11,.07-.16,.05-.1,.12-.19,.19-.23,.1-.03,.03-.36,.16-.74,.1-.37,.44-.72,.67-.46,.07,.09,.32-.28,.47-.24,.3,0,.71,.22,.52,.61-.22,.44-.29,.62-.3,.77-.01,.15,.02,.28-.02,.44-.03,.12-.03,.18-.01,.34,.01,.86,.02,1.72,.03,2.57,0,1.7-.08,3.36-.49,4.83-.16,.58,.07,3.2,.15,4.85,.08,1.61,.29,3.17,.3,4.77,.03,4.59,.3,9.77-.1,13.63-.35,3.39,.52,7.15,.02,10.01-.25,1.44-.35,3.27-.36,5.07-.02,2.5-.09,5.03,.2,7.66,.31,2.76,.1,6.58,.09,9.92,0,.75-.2,1.7-.14,2.23,.63,5.72,.19,11.74,.27,17.6,.03,1.75-.51,4.48-.36,5.22,.49,2.44,.36,3.66,0,6.21-.3,2.08-.36,6.35-.05,8.12,.18,1,.29,2,.36,3.01,.1,.61,.02,3.04,.28,4.77,.52,3.67,2.39,7.11,5.2,9.42,2.42,2.01,5.48,3.24,8.69,3.42,.8,.06,1.62,.05,2.43,.05h1.35l2.6,.04,10.39,.16c6.93,.13,13.85,.26,20.78,.29,2.73,0,5.78-.23,8.39,.03,1.73,.17,3.57,.25,5.43,.19,2.89-.1,5.97,.16,8.89,.3,3.92,.19,7.2-.47,11.25-.15,1.43,.11,2.93,.18,4.44,.19h.4v-.04s.04-.08,.09-.14c.12-.17,.28-.12,.15,.03-.2,.21-.21,.13-.15,.19h0l-.11,.28-.28,.66c-.2,.44-.39,.89-.59,1.34-.87,1.94-1.77,3.89-2.27,5.72-.43,1.58-.98,3.26-1.72,4.97-2.73,6.35-5.44,12.71-8.23,19.01-.97,2.18-1.81,4.83-3.09,6.61-.4,2.81-2.48,5.92-3.81,9-1.19,2.75-1.75,5.74-3.14,8.39-.8,1.52-1.56,3.25-2.13,4.91-2.84,8.3-6.96,16.47-10.2,24.73-.51,1.31-1.54,3.31-1.58,3.81-.21,2.7-2.36,5.42-3.05,7.94-1.03,3.74-2.62,6.63-4.34,9.58-.41,.71-1.15,2.43-1.19,2.82-.2,2.21-1.55,4.81-2.56,7.32-2.4,6.01-5.42,11.97-7.14,18.1-.38,1.37-1.62,3.57-2.48,5.35-.41,.85-1.22,2.12-1.25,2.34-.63,4.38-4.97,10.03-5.64,14.48-.1,.68-1.12,3.14-1.53,3.69-1.54,2.1-1.82,3.82-2.76,6.38-.54,1.48-1.16,2.95-1.82,4.43-.33,.74-.67,1.48-1,2.22-.31,.67-.8,1.76-.75,1.59-.15,.22-.27,.4-.35,.64-.09,.23-.11,.54-.22,.99-.04,.2-.3,.12-.41-.08-.27-.47-.32-.3-.66,.08-.29,.35-.84,.21-.79-.26,.09-.73,.13-.77-.18-.86-.14-.05-.24-.25-.28-.51-.02-.13-.02-.27,0-.4,0-.07,.02-.13,.04-.19l.03-.08c.01-.14,.03-.28,.04-.42,.8-7.51-.31-14.23-.29-21.34,0-1.21-.24-3.14-.13-3.52,.65-2.31,.33-5.28,.37-7.93,.03-2.4,.14-5.6-.16-7.07-.63-3.12,.59-4.5,.19-7.19-.33-2.19-.92-5.1-.44-7.39,.68-3.26-.49-5.21-.1-8.1,.22-1.64,.18-3.92,.31-5.84,.38-5.63,.35-6.39-.59-12.94-.06-.39-.06-1.02-.03-1.49,.1-1.94,.31-3.87,.31-5.8,0-2.42-.27-4.87-.23-7.24,.06-2.93,.41-5.75,.47-8.68,.01-.6,0-1.17-.03-1.87-.03-1.12-.06-2.25-.24-3.32-.33-2.14-1.15-4.04-1.94-5.51-1.56-2.97-4.36-5.31-7.64-6.37-1.64-.56-3.4-.71-5.18-.69l-1.85,.03-1.49,.04c-3.96,.11-7.94,.31-11.9,.3-2.24,0-4.05-.68-6.99-.09-1.12,.22-4.82-.33-7.42-.42-4-.13-8.03-1.1-12.14-.03-.18,.05-1.65-.05-1.76-.13-1.16-.94-3.83,1.18-5.63,.3-.49-.24-3.71-.17-7.01-.21-.8-.01-1.6,0-2.38,.03-1.83,.09-3.87,.18-6.01,.28-1.07,.04-2.17,.08-3.29,.13-1,.03-2.01,.06-3.03,.09-.84,.06-1.49,.22-2.22,.75-.63,.46-1.5,.52-1.86,1.44-.31,.79-.63,1.9-1.25,2.16-1.42,.6-.79,1.68-.75,2.44,.12,2.22,.89,4.22,2.93,5.48,.6,.37,1.11,.97,1.76,1.18,.4,.13,.87,.52,1.34,.4,.06-.01,.08-.03,.18-.03l.67-.02c.45,0,.91,0,1.36,0,.9,.02,1.8,.08,2.64,.16,4.07,.4,8.61,.42,12.7,.75,3.26,.26,4.5-.52,7.12-.22,2.34,.27,5.02-.04,7.6,0,11.42,.21,22.85-.14,34.28,.01,.76,.02,1.51,.04,2.25,.05l1.1,.04c.25,0,.2,.02,.23,.02l.06,.03c.16,.06,.28,.18,.32,.33,.06,.17-.09,.46-.21,.55-.05,.05-.08,.07-.04,.08h.05l.04,.02s.01-.02,.02,.03l.02,.19c.06,.51,.15,1.03,.27,1.56,.22,1.01-.36,4.83-.42,7.42-.08,3.52-.33,7.93,.05,10.46,.6,4.03-.47,6.8-.08,10.16,.17,1.46,.18,3.44,.43,4.53,.57,2.54,.82,4.59,.33,8.19-.55,4.04-.17,9.21-.69,13.7-.2,1.77,.37,4.93,.42,7.52,.18,8.94,.02,17.81,.43,26.89,.14,3.12,.19,6.28,.2,9.46-.02,4.03-.04,8.1-.06,12.17,0,.75-.02,1.51,0,2.24l.16,2.14,.04,.53,.1,.47,.22,.92c.16,.59,.29,1.27,.51,1.75,.19,.53,.44,1.01,.68,1.51l.36,.74c.14,.24,.31,.46,.46,.69,.31,.46,.61,.93,1.01,1.34,.38,.42,.73,.87,1.19,1.24,1.69,1.6,3.86,2.73,6.15,3.35,2.29,.61,4.74,.59,6.99,.06,1.46-.3,2.8-.94,4.06-1.54,.6-.35,1.18-.7,1.74-1.06,.51-.4,1.02-.8,1.52-1.19,.23-.2,.45-.39,.67-.6,.22-.26,.43-.51,.65-.76,.42-.54,.85-.99,1.21-1.65,.35-.67,.69-1.34,1.03-2,.32-.69,.59-1.44,.88-2.15,.55-1.43,1.1-2.86,1.65-4.3l.38-1.01,.2-.59c.14-.39,.28-.79,.43-1.18,.34-.91,.76-2.4,.94-2.64,2.01-2.59,3.68-6.94,4.52-9.75,1.24-4.12,3.44-6.67,4.45-10.3,1.86-6.65,5.67-13.14,8.35-19.81,.77-1.91,1.76-4.04,2.25-5.71,1.61-5.51,4.09-10.76,6.53-15.91,.54-1.15,.87-1.51,1.18-2.88,.7-3.08,3.3-7.01,3.66-10.09,2.1-3.18,2.95-6.51,4.19-10.06,.46-1.34,2.02-2.68,2.46-5.49,.25-1.57,1.92-2.64,2.44-5.44,.27-1.45,1.48-4.22,2.35-6.39,1.44-3.58,3.72-8.06,4.27-10.52,1.04-4.65,3.44-6.71,4.59-10.46,.61-2.01,2.08-4.13,2.83-6.27,1.22-3.5,2.42-6.86,4.33-9.94,.55-.88,1.46-2.72,1.64-3.48,1.04-4.37,3.18-8.86,5.07-13.17,1.86-4.24,3.37-8.97,5.67-12.81,.21-.35,.42-.69,.64-1.02,.11-.16,.23-.4,.36-.69,.06-.14,.13-.3,.2-.46,.12-.3,.25-.6,.38-.92,.26-.63,.53-1.29,.71-1.94,.21-.64,.42-1.25,.47-1.8,.43-2.11,.31-4.33-.24-6.32Z"/></svg>