<?xml version="1.0" encoding="UTF-8"?><svg id="EXPANDED" xmlns="http://www.w3.org/2000/svg" viewBox="0 0 595.28 595.28"><defs><style>.cls-1{fill:#00aeff;}</style></defs><path class="cls-1" d="M307.72,404.84l-7.6-4.31v-75.83c0-9.68-7.87-17.56-17.55-17.56s-17.56,7.88-17.56,17.56v75.83l-7.6,4.31c-16.03,9.09-25.98,26.14-25.98,44.52,0,28.2,22.94,51.14,51.14,51.14s51.14-22.94,51.14-51.14c0-18.38-9.96-35.43-25.99-44.52Z"/><path class="cls-1" d="M355.57,442.51c-.17-1.56-.35-3.13-1.07-4.75-.41-.97-.42-1.84-.42-2.8,.01-.96-.07-1.98-.48-3.26-.27-.77-.49-1.72-.84-2.7-.33-.99-.68-2.05-1.01-3.13-.3-1.08-.75-2.12-1.08-3.12-.36-.99-.64-1.94-.96-2.72-.5-1.28-1.09-2.54-1.69-3.79-.65-1.22-1.35-2.41-1.98-3.63-.74-1.45-1.82-2.69-2.76-4-.97-1.3-2.01-2.52-2.75-4-.85-1.6-3.67-4.9-5.67-6.59-.41-.37-.81-.74-1.22-1.1l-1.27-1.04c-.85-.69-1.67-1.4-2.53-2.08-1.76-1.3-3.48-2.71-5.42-4.01-.46-.32-1.01-.69-1.58-1.06l-.21-.13-.05-.02-.1-.04c-.07-.03-.14-.05-.21-.06-.28-.07-.53-.08-.63,0-.38,.36-.84,.48-1.26,.46,.07-.1,.14-.18,.2-.28,.37-.6,.97-1.11,1.18-1.76,.13-.4,.52-.87,.4-1.34-.01-.07-.02-.07-.03-.19l-.02-.74c0-.5,0-1,0-1.5,.02-1,.08-1.99,.16-2.91,.4-4.49,.42-9.51,.75-14.04,.26-3.61-.52-4.98-.22-7.87,.27-2.58-.04-5.55,0-8.41,.21-12.62-.14-25.26,.01-37.89,.04-3.37,.2-6.5,.4-9.76,.21-3.45,1.08-7.64,.16-12.3-.22-1.12,.36-5.34,.42-8.21,.08-3.89,.33-8.77-.05-11.56-.6-4.46,.47-7.52,.08-11.23-.17-1.62-.18-3.8-.43-5.01-.57-2.81-.82-5.07-.33-9.05,.55-4.46,.17-10.18,.69-15.15,.2-1.96-.37-5.45-.42-8.31-.18-9.88-.02-19.68-.43-29.73-.56-13.79,.3-28.26-.37-42.25-.11-2.24-.02-4.53,.17-6.63,.37-3.94-.07-7.36-.22-11.09-.02-.27-.03-.58-.05-.89-.02-.31-.04-.62-.09-1.01-.08-.73-.13-1.34-.11-1.53,.16-1.08,.27-2.29,.14-3.56-.1-1.27-.2-2.6-.56-3.88-.56-2.59-1.6-5-2.52-6.77-1.41-2.57-2.55-4.82-3.84-6.93-.69-1.02-1.32-2.07-2.1-3-.81-.92-1.63-1.85-2.62-2.66-3.62-2.98-7.61-5.75-12.07-7.85-4.44-2.1-9.38-3.46-14.29-3.61-.7-.01-1.43-.08-2.16-.06-.73,.03-1.47,.07-2.19,.1-1.45,.03-2.82,.3-3.97,.58l-1.42,.34c-.47,.12-.93,.29-1.4,.43-.93,.3-1.86,.56-2.78,.88-1.81,.72-3.63,1.37-5.36,2.27l-1.31,.63c-.44,.21-.84,.48-1.26,.71-.83,.5-1.69,.96-2.5,1.49l-2.37,1.67c-.8,.54-1.5,1.22-2.25,1.83-1.33,1.09-1.84,1.49-2.93,3.04-.63,.89-1.3,1.83-2.01,2.83-.35,.51-.77,.99-1.11,1.54-.34,.54-.69,1.09-1.04,1.64-.72,1.08-1.29,2.25-1.76,3.37-.24,.56-.47,1.1-.63,1.65-.14,.55-.25,1.08-.32,1.59-2.41,4.46-2.67,9.42-2.43,14.17,.09,1.56-.81,3.6-.13,6.65,.38,1.7-.74,3.52-.13,6.58,.32,1.59,.28,4.94,.31,7.52,.06,4.26-.29,9.81,.15,12.55,.84,5.18-.56,8.32-.16,12.63,.22,2.31-.31,5.1-.17,7.6,.24,4.09,.43,8.02-.13,11.98-.16,1.13-.28,3.4-.16,4.25,.74,4.9,.51,10.39,.45,15.59-.07,5.58,.47,11.57-.45,16.8-.15,.85-.04,3.05,.06,4.46,.19,2.75,.37,5.67,.71,7.99,.51,3.41-.31,6.88-.07,8.75,.41,3.16,.23,6.04,.25,8.96,.06,7.06,.39,14.73-.08,21.04-.52,7.11-.04,12.93-.39,19.43-.29,5.54,.49,11.16,.02,16.93-.11,1.36-.31,3.44-.22,5.22,.08,1.82,.25,3.8,.17,5.5-.45,9.97-.52,11.24-.25,17.54,.07,1.59,.03,3.23-.04,4.82-.14,2.93,.62,5.76,.21,8.92-.8,6.16-.35,12.93-.35,19.5,0,.93,.03,1.83,.08,2.71,.03,.44,.07,.87,.1,1.29,.04,.37,.08,.99,.13,.94,.18,.35,.18,.76,.09,1.06-.17,.08-.4,.12-.59,.15l-.29,.03h-.2s-.07,.05,.05-.04c.02-.02,.11-.08,.08-.06l-.07,.04c-1.93,1.12-3.51,2.35-4.94,3.83-.73,.72-1.48,1.43-2.29,2.15-.78,.76-1.62,1.51-2.62,2.24-.28,.21-.6,.49-.94,.83-.32,.35-.67,.75-1.02,1.17-.7,.83-1.45,1.72-2.14,2.42-.91,1.02-1.83,1.98-2.76,2.95-.92,.97-1.75,2.01-2.62,3.07-.71,.83-1.55,2.26-1.85,2.99-.4,.99-.95,1.97-1.43,3.03-.5,1.05-1.04,2.1-1.61,3.13-.56,1.04-1.04,2.1-1.57,3.09-.26,.5-.51,.98-.76,1.45-.24,.47-.43,.94-.64,1.39-3.32,7.1-5.37,14.37-5.12,21.99-.01,.57-.06,1.96-.17,2.36-.99,3.46-.33,8.1,.03,12.12,.29,3.54,1.3,6.22,2.16,9.18,.81,2.57,1.53,7.24,2.44,8.7,.33,.58,.61,1.15,.88,1.7,.29,.55,.55,1.09,.79,1.62,.46,1.07,.91,2.11,1.36,3.15l.67,1.56c.24,.51,.5,1.02,.77,1.54,.27,.51,.55,1.03,.86,1.55,.32,.51,.68,1.02,1.05,1.53,3.19,4.28,6.74,8.51,10.69,12.5,2.78,2.9,6.2,4.99,8.14,6.85,3.94,3.7,8.81,6.17,13.67,8.35,3.38,1.49,6.88,2.75,10.47,3.68,3.59,.92,7.24,1.62,10.91,2.05,3.12,.38,7.75,1.13,9.07,.83l3.16-.57c1.09-.22,2.19-.41,3.25-.59,2.12-.43,4.08-.73,5.46-.85,4.77-.29,9.5-2.62,11.48-2.97,1.93-.33,3.09-.98,4.04-1.54,.93-.61,1.65-1.16,2.74-1.41,3.91-.98,8-4.16,11.31-6.78,3.89-3.02,7.99-5.6,11.08-9.32,.65-.74,1.26-1.56,1.92-2.31,.67-.75,1.31-1.52,1.95-2.23,1.22-1.28,2.29-2.74,3.37-4.21,1.01-1.52,2.02-3.07,2.89-4.7,1.79-3.24,3.34-6.63,4.7-9.99,.68-1.54,.81-4.06,1.24-4.77,1.63-2.93,2.2-6.99,2.8-10.59,.71-4.27,1.04-8.79,.73-12.97-.12-1.7-.06-3.26-.26-4.83Zm-14.49,4.87c-.05,1-.16,1.93-.59,2.72,.05,.49,.1,1,.17,1.47,.29,2.24-.02,4.06-.62,6.41-.56,2.05-1.23,5.29-1.6,7.28-.08,.55-.15,1.03-.21,1.47-.08,.44-.16,.83-.23,1.21-.16,.76-.32,1.49-.74,2.38-1.35,3.09-3.07,5.98-4.95,8.78-1.88,2.81-3.89,5.56-5.93,8.51-.29,.44-1.02,1-1.56,1.52-2.36,2.4-4.94,4.67-7.63,6.72-2.7,2.04-5.52,3.85-8.32,5.43-2.91,1.64-5.9,2.85-8.92,3.75-3.03,.87-6.09,1.43-9.22,1.81-3.29,.41-6.73,.59-9.81,.62-1.45,.06-2.89-.05-4.33-.09-1.42-.15-2.85-.23-4.25-.5-2.81-.43-5.54-1.19-8.13-2.27-.61-.25-1.24-.51-1.87-.76-.62-.27-1.26-.53-1.9-.75-.98-.34-1.92-.85-2.87-1.32-.93-.52-1.85-1.07-2.76-1.62-1.81-1.14-3.59-2.23-5.48-3.04-.26-.12-1.06-.9-1.65-1.37-2.15-1.73-4.24-3.53-6.21-5.44-1.95-1.94-3.75-4.02-5.32-6.27-2.05-3.01-4.71-5.72-6.34-9.64-.28-.73-.9-1.49-1.31-2.32-.36-.86-.88-1.88-1.25-2.83-.36-.96-.66-1.82-.71-2.29-.07-1.14-.34-2.24-.6-3.34-.22-1.11-.58-2.21-.7-3.33-.1-.8-.29-1.6-.4-2.43-.12-.83-.24-1.66-.35-2.48-.12-1.66-.18-3.29,.22-4.73,.09-.56-.04-3.1-.07-4.71,0-1.56,0-3.09,.14-4.65,.56-4.43,1.69-9.42,3.44-12.79,1.42-2.96,2.4-6.58,4.19-8.77,.48-.53,.99-1.15,1.48-1.82,.5-.67,.98-1.4,1.52-2.08,1.42-1.96,3.02-3.81,4.53-5.88,.82-1.07,1.88-2.28,3.16-3.36,.63-.55,1.24-1.16,1.92-1.66,.67-.52,1.33-1.04,1.97-1.55,.56-.48,1.44-.83,1.83-1.18,.52-.46,1.06-.92,1.61-1.37,1.3-.9,2.54-1.67,3.82-2.49l1.91-1.21,.96-.6,.48-.3,.12-.08s0-.09,.02-.13v-.29c0-1.52,0-3.05,0-4.57,.02-2.29,.04-4.59,.06-6.89,.02-1.63,.03-3.26,0-4.88-.03-1.94,.51-4.95,.36-5.77-.49-2.7-.36-4.05,0-6.87,.3-2.3,.36-7.02,.05-8.97-.7-4.41-.41-8.94-.42-13.36-.05-15.31,.45-30.63,.5-45.94,0-3.02-.23-6.39,.03-9.28,.17-1.91,.25-3.95,.19-6-.1-3.19,.16-6.6,.3-9.82,.19-4.33-.47-7.96-.15-12.43,.22-3.16,.28-6.65,0-9.86-.17-1.99-.21-4.17-.06-6.19,.24-3.21,.22-6.66,.15-10.06-.06-3.28,.25-6.96-.11-10-.21-1.79-.36-3.74-.35-5.8,.05-7.64,.07-15.29,.2-22.9,.04-2.64-.21-5.7,.28-8.06-.72-3.03-.01-7.09,.02-10.8,.02-3.31-.62-6.6-.36-9.89,.15-1.89,.18-3.98,.06-5.92-.6-9.67,.02-19.76-.21-29.56,0-.39,0-.83,0-1.29v-.34l.03-.26c.02-.17,.03-.34,.04-.51,.05-.66,.08-1.22,0-1.42-.2-.55-.15-1.13-.12-1.73,.02-.3,.06-.6,.11-.9,.05-.3,.17-.59,.26-.89,.21-.58,.38-1.18,.59-1.73,.24-.55,.43-1.09,.53-1.63,.74-3.18,2.66-5.44,4.84-7.2,.27-.2,.64-.62,1.01-.97,.38-.34,.71-.67,.78-.82,.39-.88,1.21-1.56,2.08-2.27,.43-.36,.96-.61,1.45-.92,.49-.31,.99-.61,1.51-.84,.62-.29,1.2-.66,1.85-.88l1.93-.7,2-.49c.66-.18,1.36-.2,2.03-.33,2.72-.33,5.47-.4,8.19-.26,.61,.01,1.41,.3,2.27,.56,.85,.29,1.69,.78,2.47,1.08,.72,.37,1.72,1.16,1.91,1.17,.49,.04,.92,.27,1.4,.47,.46,.23,.98,.44,1.42,.79,.45,.34,.9,.7,1.36,1.08,.47,.36,.84,.85,1.26,1.26l.62,.64c.2,.22,.37,.47,.56,.69,.36,.46,.75,.89,1.12,1.31,.64,.92,1.44,1.64,2.1,2.32,.21,.2,.64,.78,1,1.4,.31,.65,.59,1.31,.64,1.6,.12,.54,.2,1.04,.31,1.5,.12,.46,.27,.88,.46,1.3,.17,.42,.29,.87,.47,1.33,.15,.47,.4,.95,.49,1.53,.12,.66,.25,1.33,.37,2,.07,.68,.06,1.38,.1,2.07,.05,.6,0,1.63-.02,2.5l-.08,2.7c-.1,3.61-.16,7.21,.16,10.68,.07,.72-.08,2.24-.23,2.98-.34,1.77-.25,3.01-.02,4.99,.2,1.71,.3,4.74,.1,6.16-.32,2.3-.35,3.38-.06,5.95,.28,2.44,.41,6.46,.18,8.87-.8,8.31,.31,15.73,.29,23.58,0,1.34,.24,3.47,.13,3.89-.65,2.55-.33,5.83-.37,8.77-.03,2.65-.14,6.19,.16,7.82,.63,3.45-.59,4.97-.19,7.95,.33,2.42,.92,5.64,.44,8.16-.68,3.6,.49,5.75,.1,8.95-.22,1.82-.18,4.33-.31,6.45-.38,6.22-.35,7.06,.59,14.3,.06,.43,.06,1.12,.03,1.64-.1,2.15-.31,4.28-.31,6.41,0,2.67,.27,5.39,.23,8-.06,3.24-.41,6.35-.47,9.59-.05,2.6,.37,5.73,.19,7.88-.73,8.61,.1,17.45,.07,26.19,0,2.48-.68,4.48-.09,7.73,.23,1.24-.33,5.33-.42,8.2-.13,4.42-1.1,8.88-.03,13.41,.05,.2-.05,1.83-.13,1.94-.94,1.28,1.18,4.23,.3,6.23-.24,.54-.17,4.1-.21,7.75-.01,.88,0,1.76,.03,2.63,.09,2.02,.18,4.27,.28,6.64,.04,1.19,.08,2.4,.13,3.63,.03,1.1,.06,2.22,.09,3.34,.06,.84,.22,1.49,.75,2.22,.46,.63,.52,1.5,1.44,1.86,.79,.31,1.9,.63,2.16,1.25,.6,1.42,1.68,.79,2.44,.75,.21-.01,.41-.03,.61-.06-.39,.68-.77,1.37-1.19,2.02-.14,.22-.68,.32-.68,.46,.01,.63,.51,1.29-.1,1.85-.89,.82,.14,1.23,.18,1.84,.05,.66-.53,1.5,.17,1.93,.25,.16,.39,.35,.49,.57,.05,.11,.09,.23,.12,.35-.02,0,.08,.11,.17,.19l.25,.25c.17,.17,.35,.34,.53,.51,5.06,4.7,10.48,10.13,14.97,16.43,.75,1.07,1.54,2.12,2.19,3.27l1.03,1.69c.34,.56,.62,1.17,.93,1.76,.39,.8,.86,1.56,1.22,2.33,.37,.76,.75,1.47,1.14,2.07,.44,.66,.71,1.38,.9,2.12,.2,.74,.34,1.5,.48,2.27,.11,.77,.16,1.57,.27,2.37,.1,.8,.31,1.59,.46,2.42,.2,.89,.5,1.86,.82,2.87,.28,1.02,.52,2.08,.74,3.14,.25,1.06,.28,2.13,.25,3.12Z"/><path class="cls-1" d="M346.07,152.55c.6,.37,1.11,.97,1.76,1.18,.4,.13,.87,.52,1.34,.4l.15-.03s.04-.01,.06-.02c.04,0,.08,0,.11,0,.08,.02,.15,.08,.22,.16,.34,.4,.71,.42,1.05,.75,.27,.26,.37-.52,.59-.22,.19,.27,.42-.04,.63,0,.94,.21,1.89-.14,2.84,.01,.25,.04,.49,.2,.73,.4,.26,.21,.57,1.08,.92,.16,.08-.22,.4,.36,.61,.42,.29,.08,.66,.33,.87-.05,.33-.6,.56,.47,.84,.08,.12-.17,.28-.18,.38-.43,.21-.57,.38-.82,.68-.33,.33,.55,.76,.17,1.13,.69,.15,.2,.41-.37,.62-.42,.74-.18,1.47-.02,2.23-.43,1.03-.56,2.12,.3,3.16-.37,.17-.11,.34-.02,.5,.17,.29,.37,.55-.07,.83-.22,.08-.04,.21-.24,.23-.16,.26,.85,.65,.69,.89,.38,.35-.46,.62,.58,.93,.1,.57-.87,1.18,.12,1.78,0,.17-.04,.36,.06,.51-.14,.47-.66,.95-.41,1.42-.16,.1,.06,.14,.21,.26-.03,.26-.55,.64,.32,.89-.55,.31,.7,.59,.19,.9-.05,.12-.09,.27,.81,.5,.13,.13-.38,.26,.74,.49,.13,.12-.32,.37-.28,.56-.31,.32-.06,.73,.29,.94-.15,.39-.84,.62,.57,.95,.16,.17-.22,.38,.31,.57,.17,.31-.24,.6-.43,.9,.13,.08,.16,.25,.28,.32,.16,.37-.74,.78-.51,1.17-.45,.42,.07,.87-.47,1.26,.45,.06,.15,.23,.04,.33-.06,.21-.19,.42-.37,.6-.71,.25-.51,.51,.31,.65,.07,.24-.41,.45-.23,.67-.25,.53-.06,1.1-.39,1.58,.08,.53,.52,.97,.04,1.45,.39,.41,.29,.84-.49,1.27-.02,.1,.11,.26,.31,.39,.22,.14-.08,.28-.25,.41-.17,.75,.45,.84,.52,1.31,.25,.12-.07,.24-.03,.36,.04,.22,.14,.43-.62,.67-.21,.46,.8,.97,.35,1.46,.35,.14,0,.27-.11,.39-.31,.22-.37,.45,.01,.68,.35,.3,.44,.54-.83,.87-.3,.09,.15,.28-.22,.41-.17,.19,.07,.36,.34,.55,.46,.07,.05,.19,0,.24-.14,.28-.73,.65-.48,.92-.27,.53,.42,1.03,.79,1.54-.06,.04-.06,.13-.03,.16,.06,.24,.77,.55,.3,.82,.43,.24,.11,.43-.29,.64-.44,.18-.13,.5,.6,.61,.38,.35-.71,.61,.45,.96,.1,.36-.37,.73-.53,1.12-.43,.27,.07,.54-.39,.72-.05,.36,.67,.73,.38,1.09,.43,.5,.07,1-.03,1.5,.04,.21,.03,.52,.64,.61,.42,.27-.68,.62-1.17,.81-.86,.32,.52,.67-.29,.81,.07,.26,.68,.35-.57,.5-.14,.27,.78,.61,.09,.9-.06,.34-.17,.66,.62,.98,.35,.13-.11,.27-.14,.4,0,.48,.53,.99,0,1.48,.19,.11,.04,.28-.57,.33-.4,.22,.7,.49,.33,.74,.39,.29,.07,.6,.14,.88-.02,.23-.13,.42,.35,.66-.44,.14-.48,.23,.55,.41,.34,.22-.26,.6-.16,.83,.05,.19,.17,.37,.01,.56,.09,.22,.09,.44-.64,.66-.11,.12,.29,.41,.26,.59,.08,.3-.31,.58-.49,.9-.49,.04,0,.08-.01,.13-.04,.07-.03,.25-.06,.36-.11,.25-.09,.45-.21,.48-.33,.18-.86,.94-1.25,1.45-1.3,1.29-.13,.54-1.39,1.2-1.77,.82-.47,.66-1.25,.66-1.98,0-1-.03-2,.02-3,.01-.26,.45-.63,.38-.74-.33-.53-1.14-.83-.88-1.63,.39-1.17-.8-.98-1.19-1.47-.42-.54-.37-1.56-1.29-1.56-.33,0-.58-.1-.81-.23-.11-.07-.22-.14-.33-.22-.08-.08-.09-.16-.14-.23-.58-1.01-1.25-1.09-1.91-.76-.23,.11-.45,.26-.68,.34-.15,.06-.31,.18-.42,.45-.26,.6-.52-.65-.81-.45-.31,.21-.75,1.66-1.02,.15-.04,.07-.09,.12-.12,.2-.19,.38-.34,.24-.55-.04-.18-.24-.46-.27-.64-.03-.19,.27-.27,.57-.44,.48-.57-.32-1.14-1.2-1.74-.4-.04,.06-.12-.12-.19-.14-.57-.15-1.17-.13-1.72,.16-.57,.29-1.09,0-1.62-.15-.28-.08-.58-.05-.84,.08-.49,.24-.97,.48-1.45,.07-.11-.1-.23-.16-.35-.11-.35,.16-.73-.78-1.08,.1-.02,.06-.12-.13-.18-.15-.47-.16-.94,.13-1.41-.1-.31-.16-.63,.67-.98,.46-.07-.04-.15,.2-.23,.24-.16,.07-.38,.29-.46,.08-.19-.49-.38-.25-.58-.34-.27-.13-.58,.34-.82-.47-.05-.16-.26,.07-.4,.15-.13,.08-.26,.29-.39,.3-.38,.03-.81,.3-1.13-.1-.28-.35-.59,.52-.83,.02-.12-.25-.27-.35-.42-.36-.21-.02-.42-.09-.63,.2-.23,.31-.54,.1-.82,.09-.06,0-.14-.2-.18-.14-.47,.63-.97,.19-1.46,.27-.15,.03-.37-.51-.43-.36-.2,.49-.3,.36-.51,0-.17-.3-.53-.36-.67-.05-.33,.7-.67,.41-1,.42-1.15,.05-2.29-.45-3.44-.5-.23,0-.48,.23-.69-.03-.14-.17-.3-.25-.45-.19-.24,.1-.49-.16-.74-.3-.32-.19-.6,.47-.93,.15-.24-.22-.5-.28-.74,0-.15,.17-.31,.21-.46,.06-.24-.24-.5-.22-.75-.15-.25,.06-.52-.25-.75,.11-.13,.21-.28,.36-.43,.35-.57-.05-1.14-.07-1.71-.2-.2-.04-.43,.21-.6-.28-.23,.72-.53,.01-.81-.02-.25-.02-.49,.62-.74,.36-.14-.15-.3-.18-.44-.06-.72,.6-1.48-.02-2.21,.21-.12,.04-.3-.13-.34,.03-.21,.85-.49-.07-.7,.27-.32,.5-.59,.16-.87-.28-.07-.11-.22-.12-.25,0-.17,.67-.42,.44-.64,.49-.54,.12-1.09-.34-1.61,.46-.12,.18-.32-.1-.49-.2-.08-.05-.2-.3-.22-.24-.35,1.12-.92-.68-1.29,.43-.06,.17-.28,.19-.33,.03-.21-.61-.35-.19-.57-.06-.52,.3-1.08-.58-1.6,.07-.05,.07-.17-.08-.22-.23-.13-.34-.23-.25-.37-.02-.13,.2-.35,.3-.46,.1-.17-.32-.25-.35-.45-.06-.18,.28-.48,.41-.66,.18-.62-.8-1.18,.31-1.77,.29-.1,0-.26,.24-.29,.13-.19-.65-.44-.33-.66-.37-.2-.03-.46-.14-.59,.16-.26,.63-.37-.59-.6-.19-.18,.33-.42,.92-.61,.44-.27-.68-.43,.49-.67,.1-.14-.22-.32-.18-.48-.31-.47-.38-.53-.35-1.07,.59-.03,.06-.08,.06-.12,.03-.16-.1-.32-.31-.48-.31-.2,0-.4,.27-.6,.23-.24-.06-.48-.41-.72-.47-.19-.05-.43,.37-.59,.19-.64-.73-1.31,.1-1.96,.07-.19,0-.33-.68-.58-.09-.09,.22-.4-.33-.61-.42-.33-.13-.66-1.1-1-.03-.02,.05-.14-.05-.15-.13-.1-.94-.32,1.18-.47,.3-.04-.24-.31-.17-.58-.21-.07-.01-.13,0-.2,.03-.15,.08-.33,.18-.5,.28-.09,.05-.18,.09-.27,.13l-.14,.05c-.07,.02-.03,.03-.21,.04-.84,.07-1.49,.22-2.22,.75-.63,.46-1.5,.52-1.86,1.44-.31,.79-.63,1.9-1.25,2.16-1.42,.6-.79,1.68-.75,2.44,.12,2.22,.89,4.22,2.93,5.48Z"/><path class="cls-1" d="M346.07,198.93c.6,.37,1.11,.97,1.76,1.18,.4,.13,.87,.52,1.34,.4l.15-.03s.02-.01,.02-.02c.02,0,.03,0,.05,0,.03,.02,.06,.08,.09,.16,.14,.4,.3,.42,.45,.75,.11,.26,.16-.52,.25-.22,.08,.27,.18-.04,.27,0,.4,.21,.8-.14,1.2,.01,.11,.04,.21,.2,.31,.4,.11,.21,.24,1.08,.39,.16,.04-.22,.17,.36,.26,.42,.12,.08,.28,.33,.37-.05,.14-.6,.24,.47,.36,.08,.05-.17,.12-.18,.16-.43,.09-.57,.16-.82,.29-.33,.14,.55,.32,.17,.48,.69,.06,.2,.17-.37,.26-.42,.31-.18,.62-.02,.94-.43,.44-.56,.9,.3,1.34-.37,.07-.11,.14-.02,.21,.17,.12,.37,.23-.07,.35-.22,.03-.04,.09-.24,.1-.16,.11,.85,.27,.69,.38,.38,.15-.46,.26,.58,.39,.1,.24-.87,.5,.12,.75,0,.07-.04,.15,.06,.22-.14,.2-.66,.4-.41,.6-.16,.04,.06,.06,.21,.11-.03,.11-.55,.27,.32,.38-.55,.13,.7,.25,.19,.38-.05,.05-.09,.11,.81,.21,.13,.05-.38,.11,.74,.21,.13,.05-.32,.16-.28,.24-.31,.14-.06,.31,.29,.4-.15,.16-.84,.26,.57,.4,.16,.07-.22,.16,.31,.24,.17,.13-.24,.25-.43,.38,.13,.04,.16,.11,.28,.13,.16,.16-.74,.33-.51,.5-.45,.18,.07,.37-.47,.53,.45,.03,.15,.1,.04,.14-.06,.09-.19,.18-.37,.25-.71,.11-.51,.22,.31,.28,.07,.1-.41,.19-.23,.28-.25,.22-.06,.47-.39,.67,.08,.23,.52,.41,.04,.62,.39,.18,.29,.35-.49,.54-.02,.04,.11,.11,.31,.17,.22,.06-.08,.12-.25,.17-.17,.32,.45,.36,.52,.56,.25,.05-.07,.1-.03,.15,.04,.09,.14,.18-.62,.28-.21,.2,.8,.41,.35,.62,.35,.06,0,.12-.11,.17-.31,.1-.37,.19,.01,.29,.35,.13,.44,.23-.83,.37-.3,.04,.15,.12-.22,.17-.17,.08,.07,.15,.34,.23,.46,.03,.05,.08,0,.1-.14,.12-.73,.28-.48,.39-.27,.23,.42,.44,.79,.65-.06,.02-.06,.06-.03,.07,.06,.1,.77,.23,.3,.35,.43,.1,.11,.18-.29,.27-.44,.08-.13,.21,.6,.26,.38,.15-.71,.26,.45,.41,.1,.15-.37,.31-.53,.47-.43,.11,.07,.23-.39,.31-.05,.15,.67,.31,.38,.46,.43,.21,.07,.42-.03,.64,.04,.09,.03,.22,.64,.26,.42,.11-.68,.27-1.17,.34-.86,.14,.52,.28-.29,.34,.07,.11,.68,.15-.57,.21-.14,.11,.78,.26,.09,.38-.06,.14-.17,.28,.62,.42,.35,.06-.11,.12-.14,.17,0,.2,.53,.42,0,.63,.19,.05,.04,.12-.57,.14-.4,.09,.7,.21,.33,.31,.39,.12,.07,.25,.14,.37-.02,.1-.13,.18,.35,.28-.44,.06-.48,.1,.55,.18,.34,.09-.26,.26-.16,.35,.05,.08,.17,.16,.01,.24,.09,.09,.09,.19-.64,.28-.11,.05,.29,.17,.26,.25,.08,.13-.31,.25-.49,.38-.49,.02,0,.04-.01,.06-.04,.05-.03,.25-.06,.35-.11,.25-.09,.45-.21,.48-.33,.18-.86,.94-1.25,1.45-1.3,1.29-.13,.54-1.39,1.2-1.77,.82-.47,.66-1.25,.66-1.98,0-1-.03-2,.02-3,.01-.26,.45-.63,.38-.74-.33-.53-1.14-.83-.88-1.63,.39-1.17-.8-.98-1.19-1.47-.42-.54-.37-1.56-1.29-1.56-.33,0-.58-.1-.81-.23-.11-.07-.22-.14-.33-.22-.07-.08-.05-.16-.08-.23-.25-1.01-.53-1.09-.81-.76-.1,.11-.19,.26-.29,.34-.06,.06-.13,.18-.18,.45-.11,.6-.22-.65-.34-.45-.13,.21-.32,1.66-.43,.15-.02,.07-.03,.12-.05,.2-.08,.38-.15,.24-.23-.04-.08-.24-.2-.27-.27-.03-.08,.27-.12,.57-.19,.48-.24-.32-.48-1.2-.74-.4-.02,.06-.05-.12-.08-.14-.24-.15-.5-.13-.73,.16-.24,.29-.46,0-.69-.15-.12-.08-.24-.05-.36,.08-.21,.24-.41,.48-.62,.07-.05-.1-.1-.16-.15-.11-.15,.16-.31-.78-.46,.1-.01,.06-.05-.13-.08-.15-.2-.16-.4,.13-.6-.1-.13-.16-.27,.67-.42,.46-.03-.04-.06,.2-.1,.24-.07,.07-.16,.29-.2,.08-.08-.49-.16-.25-.24-.34-.12-.13-.25,.34-.35-.47-.02-.16-.11,.07-.17,.15-.06,.08-.11,.29-.17,.3-.16,.03-.34,.3-.48-.1-.12-.35-.25,.52-.35,.02-.05-.25-.12-.35-.18-.36-.09-.02-.18-.09-.27,.2-.1,.31-.23,.1-.35,.09-.03,0-.06-.2-.08-.14-.2,.63-.41,.19-.62,.27-.06,.03-.16-.51-.18-.36-.09,.49-.13,.36-.22,0-.07-.3-.22-.36-.29-.05-.14,.7-.28,.41-.42,.42-.49,.05-.97-.45-1.46-.5-.1,0-.2,.23-.29-.03-.06-.17-.13-.25-.19-.19-.1,.1-.21-.16-.31-.3-.14-.19-.25,.47-.39,.15-.1-.22-.21-.28-.31,0-.06,.17-.13,.21-.2,.06-.1-.24-.21-.22-.32-.15-.1,.06-.22-.25-.32,.11-.06,.21-.12,.36-.18,.35-.24-.05-.49-.07-.73-.2-.08-.04-.18,.21-.26-.28-.1,.72-.23,.01-.34-.02-.1-.02-.21,.62-.31,.36-.06-.15-.13-.18-.19-.06-.31,.6-.63-.02-.94,.21-.05,.04-.13-.13-.14,.03-.09,.85-.21-.07-.3,.27-.13,.5-.25,.16-.37-.28-.03-.11-.09-.12-.11,0-.07,.67-.18,.44-.27,.49-.23,.12-.46-.34-.68,.46-.05,.18-.14-.1-.21-.2-.03-.05-.09-.3-.09-.24-.15,1.12-.39-.68-.55,.43-.02,.17-.12,.19-.14,.03-.09-.61-.15-.19-.24-.06-.22,.3-.46-.58-.68,.07-.02,.07-.07-.08-.09-.23-.06-.34-.1-.25-.16-.02-.05,.2-.15,.3-.2,.1-.07-.32-.11-.35-.19-.06-.08,.28-.21,.41-.28,.18-.26-.8-.5,.31-.75,.3-.04,0-.11,.24-.12,.13-.08-.65-.19-.33-.28-.37-.08-.03-.2-.14-.25,.16-.11,.63-.16-.59-.25-.19-.08,.33-.18,.92-.26,.44-.11-.68-.18,.49-.28,.1-.06-.22-.14-.18-.21-.31-.2-.38-.22-.35-.45,.59-.01,.06-.04,.06-.05,.03-.07-.1-.14-.31-.2-.31-.08,0-.17,.27-.25,.23-.1-.06-.2-.41-.3-.47-.08-.05-.18,.37-.25,.19-.27-.73-.55,.1-.83,.07-.08,0-.14-.68-.25-.09-.04,.22-.17-.33-.26-.42-.14-.13-.28-1.1-.43-.03,0,.05-.06-.05-.06-.13-.04-.94-.13,1.18-.2,.3-.02-.24-.13-.17-.25-.21-.03-.01-.06,0-.08,.03-.06,.08-.14,.19-.21,.28-.04,.05-.08,.09-.12,.13l-.06,.05-.03,.02s0,0-.02,0h-.1c-.84,.07-1.49,.23-2.22,.76-.63,.46-1.5,.52-1.86,1.44-.31,.79-.63,1.9-1.25,2.16-1.42,.6-.79,1.68-.75,2.44,.12,2.22,.89,4.22,2.93,5.48Z"/><path class="cls-1" d="M424.98,235.63c.39-1.17-.8-.98-1.19-1.47-.42-.54-.37-1.56-1.29-1.56-.33,0-.58-.1-.81-.23-.11-.07-.22-.14-.33-.22-.08-.08-.09-.16-.14-.23-.58-1.01-1.25-1.09-1.91-.76-.23,.11-.45,.26-.68,.34-.15,.06-.31,.18-.42,.45-.26,.6-.52-.65-.81-.45-.31,.21-.75,1.66-1.02,.15-.04,.07-.09,.12-.12,.2-.19,.38-.34,.24-.55-.04-.18-.24-.46-.27-.64-.03-.19,.27-.27,.57-.44,.48-.57-.32-1.14-1.2-1.74-.4-.04,.06-.12-.12-.19-.14-.57-.15-1.17-.13-1.72,.16-.57,.29-1.09,0-1.62-.15-.28-.08-.58-.05-.84,.08-.49,.24-.97,.48-1.45,.07-.11-.1-.23-.16-.35-.11-.35,.16-.73-.78-1.08,.1-.02,.06-.12-.13-.18-.15-.47-.16-.94,.13-1.41-.1-.31-.16-.63,.67-.98,.46-.07-.04-.15,.2-.23,.24-.16,.07-.38,.29-.46,.08-.19-.49-.38-.25-.58-.34-.27-.13-.58,.34-.82-.47-.05-.16-.26,.07-.4,.15-.13,.08-.26,.29-.39,.3-.38,.03-.81,.3-1.13-.1-.28-.35-.59,.52-.83,.02-.12-.25-.27-.35-.42-.36-.21-.02-.42-.09-.63,.2-.23,.31-.54,.1-.82,.09-.06,0-.14-.2-.18-.14-.47,.63-.97,.19-1.46,.27-.15,.03-.37-.51-.43-.36-.2,.49-.3,.36-.51,0-.17-.3-.53-.36-.67-.05-.33,.7-.67,.41-1,.42-1.15,.05-2.29-.45-3.44-.5-.23,0-.48,.23-.69-.03-.14-.17-.3-.25-.45-.19-.24,.1-.49-.16-.74-.3-.32-.19-.6,.47-.93,.15-.24-.22-.5-.28-.74,0-.15,.17-.31,.21-.46,.06-.24-.24-.5-.22-.75-.15-.25,.06-.52-.25-.75,.11-.13,.21-.28,.36-.43,.35-.57-.05-1.14-.07-1.71-.2-.2-.04-.43,.21-.6-.28-.23,.72-.53,.01-.81-.02-.25-.02-.49,.62-.74,.36-.14-.15-.3-.18-.44-.06-.72,.6-1.48-.02-2.21,.21-.12,.04-.3-.13-.34,.03-.21,.85-.49-.07-.7,.27-.32,.5-.59,.16-.87-.28-.07-.11-.22-.12-.25,0-.17,.67-.42,.44-.64,.49-.54,.12-1.09-.34-1.61,.46-.12,.18-.32-.1-.49-.2-.08-.05-.2-.3-.22-.24-.35,1.12-.92-.68-1.29,.43-.06,.17-.28,.19-.33,.03-.21-.61-.35-.19-.57-.06-.52,.3-1.08-.58-1.6,.07-.05,.07-.17-.08-.22-.23-.13-.34-.23-.25-.37-.02-.13,.2-.35,.3-.46,.1-.17-.32-.25-.35-.45-.06-.18,.28-.48,.41-.66,.18-.62-.8-1.18,.31-1.77,.3-.1,0-.26,.24-.29,.13-.19-.65-.44-.33-.66-.37-.2-.03-.46-.14-.59,.16-.26,.63-.37-.59-.6-.19-.18,.33-.42,.92-.61,.44-.27-.68-.43,.49-.67,.1-.14-.22-.32-.18-.48-.31-.47-.38-.53-.35-1.07,.59-.03,.06-.08,.06-.12,.03-.16-.1-.32-.31-.48-.31-.2,0-.4,.27-.6,.23-.24-.06-.48-.41-.72-.47-.19-.05-.43,.37-.59,.19-.64-.73-1.31,.1-1.96,.07-.19,0-.33-.68-.58-.09-.09,.22-.4-.33-.61-.42-.33-.13-.66-1.1-1-.03-.02,.05-.14-.05-.15-.13-.1-.94-.32,1.18-.47,.3-.04-.24-.31-.17-.58-.21-.07-.01-.13,0-.2,.03-.15,.08-.33,.18-.5,.28-.09,.05-.18,.09-.27,.13l-.14,.05c-.07,.02-.03,.03-.21,.04-.84,.06-1.49,.22-2.22,.75-.63,.46-1.5,.52-1.86,1.44-.31,.79-.63,1.9-1.25,2.16-1.42,.6-.79,1.68-.75,2.44,.12,2.22,.89,4.22,2.93,5.48,.6,.37,1.11,.97,1.76,1.18,.4,.13,.87,.52,1.34,.4l.15-.03s.04-.01,.06-.02c.04,0,.08,0,.11,0,.08,.02,.15,.08,.22,.16,.34,.4,.71,.42,1.05,.75,.27,.26,.37-.52,.59-.22,.19,.27,.42-.04,.63,0,.94,.21,1.89-.14,2.84,.01,.25,.04,.49,.2,.73,.4,.26,.21,.57,1.08,.92,.16,.08-.22,.4,.36,.61,.42,.29,.08,.66,.33,.87-.05,.33-.6,.56,.47,.84,.08,.12-.17,.28-.18,.38-.43,.21-.57,.38-.82,.68-.33,.33,.55,.76,.17,1.13,.69,.15,.2,.41-.37,.62-.42,.74-.18,1.47-.02,2.23-.43,1.03-.56,2.12,.3,3.16-.37,.17-.11,.34-.02,.5,.17,.29,.37,.55-.07,.83-.22,.08-.04,.21-.24,.23-.16,.26,.85,.65,.69,.89,.38,.35-.46,.62,.58,.93,.1,.57-.87,1.18,.12,1.78,0,.17-.04,.36,.06,.51-.14,.47-.66,.95-.41,1.42-.16,.1,.06,.14,.21,.26-.03,.26-.55,.64,.32,.89-.55,.31,.7,.59,.19,.9-.05,.12-.09,.27,.81,.5,.13,.13-.38,.26,.74,.49,.13,.12-.32,.37-.28,.56-.31,.32-.06,.73,.29,.94-.15,.39-.84,.62,.57,.95,.16,.17-.22,.38,.31,.57,.17,.31-.24,.6-.43,.9,.13,.08,.16,.25,.28,.32,.16,.37-.74,.78-.51,1.17-.45,.42,.07,.87-.47,1.26,.45,.06,.15,.23,.04,.33-.06,.21-.19,.42-.37,.6-.71,.25-.51,.51,.31,.65,.07,.24-.41,.45-.23,.67-.25,.53-.06,1.1-.39,1.58,.08,.53,.52,.97,.04,1.45,.39,.41,.29,.84-.49,1.27-.02,.1,.11,.26,.31,.39,.22,.14-.08,.28-.25,.41-.17,.75,.45,.84,.52,1.31,.25,.12-.07,.24-.03,.36,.04,.22,.14,.43-.62,.67-.21,.46,.8,.97,.35,1.46,.35,.14,0,.27-.11,.39-.31,.22-.37,.45,.01,.68,.35,.3,.44,.54-.83,.87-.3,.09,.15,.28-.22,.41-.17,.19,.07,.36,.34,.55,.46,.07,.05,.19,0,.24-.14,.28-.73,.65-.48,.92-.27,.53,.42,1.03,.79,1.54-.06,.04-.06,.13-.03,.16,.06,.24,.77,.55,.3,.82,.43,.24,.11,.43-.29,.64-.44,.18-.13,.5,.6,.61,.38,.35-.71,.61,.45,.96,.1,.36-.37,.73-.53,1.12-.43,.27,.07,.54-.39,.72-.05,.36,.67,.73,.38,1.09,.43,.5,.07,1-.03,1.5,.04,.21,.03,.52,.64,.61,.42,.27-.68,.62-1.17,.81-.86,.32,.52,.67-.29,.81,.07,.26,.68,.35-.57,.5-.14,.27,.78,.61,.09,.9-.06,.34-.17,.66,.62,.98,.35,.13-.11,.27-.14,.4,0,.48,.53,.99,0,1.48,.19,.11,.04,.28-.57,.33-.4,.22,.7,.49,.33,.74,.39,.29,.07,.6,.14,.88-.02,.23-.13,.42,.35,.66-.44,.14-.48,.23,.55,.41,.34,.22-.26,.6-.16,.83,.05,.19,.17,.37,.01,.56,.09,.22,.09,.44-.64,.66-.11,.12,.29,.41,.26,.59,.08,.3-.31,.58-.49,.9-.49,.04,0,.08-.01,.13-.04,.07-.03,.25-.06,.36-.11,.25-.09,.45-.21,.48-.33,.18-.86,.94-1.25,1.45-1.3,1.29-.13,.54-1.39,1.2-1.77,.82-.47,.66-1.25,.66-1.98,0-1-.03-2,.02-3,.01-.26,.45-.63,.38-.74-.33-.53-1.14-.83-.88-1.63Z"/><path class="cls-1" d="M382.34,280.54c-.42-.54-.37-1.56-1.29-1.56-.33,0-.58-.1-.81-.23-.11-.07-.22-.14-.33-.22-.07-.08-.05-.16-.08-.23-.25-1.01-.53-1.09-.81-.76-.1,.11-.19,.26-.29,.34-.06,.06-.13,.18-.18,.45-.11,.6-.22-.65-.34-.45-.13,.21-.32,1.66-.43,.15-.02,.07-.03,.12-.05,.2-.08,.38-.15,.24-.23-.04-.08-.24-.2-.27-.27-.03-.08,.27-.12,.57-.19,.48-.24-.32-.48-1.2-.74-.4-.02,.06-.05-.12-.08-.14-.24-.15-.5-.13-.73,.16-.24,.29-.46,0-.69-.15-.12-.08-.24-.05-.36,.08-.21,.24-.41,.48-.62,.07-.05-.1-.1-.16-.15-.11-.15,.16-.31-.78-.46,.1-.01,.06-.05-.13-.08-.15-.2-.16-.4,.13-.6-.1-.13-.16-.27,.67-.42,.46-.03-.04-.06,.2-.1,.24-.07,.07-.16,.29-.2,.08-.08-.49-.16-.25-.24-.34-.12-.13-.25,.34-.35-.47-.02-.16-.11,.07-.17,.15-.06,.08-.11,.29-.17,.3-.16,.03-.34,.3-.48-.1-.12-.35-.25,.52-.35,.02-.05-.25-.12-.35-.18-.36-.09-.02-.18-.09-.27,.2-.1,.31-.23,.1-.35,.09-.03,0-.06-.2-.08-.14-.2,.63-.41,.19-.62,.27-.06,.03-.16-.51-.18-.36-.09,.49-.13,.36-.22,0-.07-.3-.22-.36-.29-.05-.14,.7-.28,.41-.42,.42-.49,.05-.97-.45-1.46-.5-.1,0-.2,.23-.29-.03-.06-.17-.13-.25-.19-.19-.1,.1-.21-.16-.31-.3-.14-.19-.25,.47-.39,.15-.1-.22-.21-.28-.31,0-.06,.17-.13,.21-.2,.06-.1-.24-.21-.22-.32-.15-.1,.06-.22-.25-.32,.11-.06,.21-.12,.36-.18,.35-.24-.05-.49-.07-.73-.2-.08-.04-.18,.21-.26-.28-.1,.72-.23,.01-.34-.02-.1-.02-.21,.62-.31,.36-.06-.15-.13-.18-.19-.06-.31,.6-.63-.02-.94,.21-.05,.04-.13-.13-.14,.03-.09,.85-.21-.07-.3,.27-.13,.5-.25,.16-.37-.28-.03-.11-.09-.12-.11,0-.07,.67-.18,.44-.27,.49-.23,.12-.46-.34-.68,.46-.05,.18-.14-.1-.21-.2-.03-.05-.09-.3-.09-.24-.15,1.12-.39-.68-.55,.43-.02,.17-.12,.19-.14,.03-.09-.61-.15-.19-.24-.06-.22,.3-.46-.58-.68,.07-.02,.07-.07-.08-.09-.23-.06-.34-.1-.25-.16-.02-.05,.2-.15,.3-.2,.1-.07-.32-.11-.35-.19-.06-.08,.28-.21,.41-.28,.18-.26-.8-.5,.31-.75,.3-.04,0-.11,.24-.12,.13-.08-.65-.19-.33-.28-.37-.08-.03-.2-.14-.25,.16-.11,.63-.16-.59-.25-.19-.08,.33-.18,.92-.26,.44-.11-.68-.18,.49-.28,.1-.06-.22-.14-.18-.21-.31-.2-.38-.22-.35-.45,.59-.01,.06-.04,.06-.05,.03-.07-.1-.14-.31-.2-.31-.08,0-.17,.27-.25,.23-.1-.06-.2-.41-.3-.47-.08-.05-.18,.37-.25,.19-.27-.73-.55,.1-.83,.07-.08,0-.14-.68-.25-.09-.04,.22-.17-.33-.26-.42-.14-.13-.28-1.1-.43-.03,0,.05-.06-.05-.06-.13-.04-.94-.13,1.18-.2,.3-.02-.24-.13-.17-.25-.21-.03-.01-.06,0-.08,.03-.06,.08-.14,.19-.21,.28-.04,.05-.08,.09-.12,.13l-.06,.05-.03,.02s0,0-.02,0h-.1c-.84,.07-1.49,.23-2.22,.76-.63,.46-1.5,.52-1.86,1.44-.31,.79-.63,1.9-1.25,2.16-1.42,.6-.79,1.68-.75,2.44,.12,2.22,.89,4.22,2.93,5.48,.6,.37,1.11,.97,1.76,1.18,.4,.13,.87,.52,1.34,.4l.15-.03s.02-.01,.02-.02c.02,0,.03,0,.05,0,.03,.02,.06,.08,.09,.16,.14,.4,.3,.42,.45,.75,.11,.26,.16-.52,.25-.22,.08,.27,.18-.04,.27,0,.4,.21,.8-.14,1.2,.01,.11,.04,.21,.2,.31,.4,.11,.21,.24,1.08,.39,.16,.04-.22,.17,.36,.26,.42,.12,.08,.28,.33,.37-.05,.14-.6,.24,.47,.36,.08,.05-.17,.12-.18,.16-.43,.09-.57,.16-.82,.29-.33,.14,.55,.32,.17,.48,.69,.06,.2,.17-.37,.26-.42,.31-.18,.62-.02,.94-.43,.44-.56,.9,.3,1.34-.37,.07-.11,.14-.02,.21,.17,.12,.37,.23-.07,.35-.22,.03-.04,.09-.24,.1-.16,.11,.85,.27,.69,.38,.38,.15-.46,.26,.58,.39,.1,.24-.87,.5,.12,.75,0,.07-.04,.15,.06,.22-.14,.2-.66,.4-.41,.6-.16,.04,.06,.06,.21,.11-.03,.11-.55,.27,.32,.38-.55,.13,.7,.25,.19,.38-.05,.05-.09,.11,.81,.21,.13,.05-.38,.11,.74,.21,.13,.05-.32,.16-.28,.24-.31,.14-.06,.31,.29,.4-.15,.16-.84,.26,.57,.4,.16,.07-.22,.16,.31,.24,.17,.13-.24,.25-.43,.38,.13,.04,.16,.11,.28,.13,.16,.16-.74,.33-.51,.5-.45,.18,.07,.37-.47,.53,.45,.03,.15,.1,.04,.14-.06,.09-.19,.18-.37,.25-.71,.11-.51,.22,.31,.28,.07,.1-.41,.19-.23,.28-.25,.22-.06,.47-.39,.67,.08,.23,.52,.41,.04,.62,.39,.18,.29,.35-.49,.54-.02,.04,.11,.11,.31,.17,.22,.06-.08,.12-.25,.17-.17,.32,.45,.36,.52,.56,.25,.05-.07,.1-.03,.15,.04,.09,.14,.18-.62,.28-.21,.2,.8,.41,.35,.62,.35,.06,0,.12-.11,.17-.31,.1-.37,.19,.01,.29,.35,.13,.44,.23-.83,.37-.3,.04,.15,.12-.22,.17-.17,.08,.07,.15,.34,.23,.46,.03,.05,.08,0,.1-.14,.12-.73,.28-.48,.39-.27,.23,.42,.44,.79,.65-.06,.02-.06,.06-.03,.07,.06,.1,.77,.23,.3,.35,.43,.1,.11,.18-.29,.27-.44,.08-.13,.21,.6,.26,.38,.15-.71,.26,.45,.41,.1,.15-.37,.31-.53,.47-.43,.11,.07,.23-.39,.31-.05,.15,.67,.31,.38,.46,.43,.21,.07,.42-.03,.64,.04,.09,.03,.22,.64,.26,.42,.11-.68,.27-1.17,.34-.86,.14,.52,.28-.29,.34,.07,.11,.68,.15-.57,.21-.14,.11,.78,.26,.09,.38-.06,.14-.17,.28,.62,.42,.35,.06-.11,.12-.14,.17,0,.2,.53,.42,0,.63,.19,.05,.04,.12-.57,.14-.4,.09,.7,.21,.33,.31,.39,.12,.07,.25,.14,.37-.02,.1-.13,.18,.35,.28-.44,.06-.48,.1,.55,.18,.34,.09-.26,.26-.16,.35,.05,.08,.17,.16,.01,.24,.09,.09,.09,.19-.64,.28-.11,.05,.29,.17,.26,.25,.08,.13-.31,.25-.49,.38-.49,.02,0,.04-.01,.06-.04,.05-.03,.25-.06,.35-.11,.25-.09,.45-.21,.48-.33,.18-.86,.94-1.25,1.45-1.3,1.29-.13,.54-1.39,1.2-1.77,.82-.47,.66-1.25,.66-1.98,0-1-.03-2,.02-3,.01-.26,.45-.63,.38-.74-.33-.53-1.14-.83-.88-1.63,.39-1.17-.8-.98-1.19-1.47Z"/><path class="cls-1" d="M424.98,328.39c.39-1.17-.8-.98-1.19-1.47-.42-.54-.37-1.56-1.29-1.56-.33,0-.58-.1-.81-.23-.11-.07-.22-.14-.33-.22-.08-.08-.09-.16-.14-.23-.58-1.01-1.25-1.09-1.91-.76-.23,.11-.45,.26-.68,.34-.15,.06-.31,.18-.42,.45-.26,.6-.52-.65-.81-.45-.31,.21-.75,1.66-1.02,.15-.04,.07-.09,.12-.12,.2-.19,.38-.34,.24-.55-.04-.18-.24-.46-.27-.64-.03-.19,.27-.27,.57-.44,.48-.57-.32-1.14-1.2-1.74-.4-.04,.06-.12-.12-.19-.14-.57-.15-1.17-.13-1.72,.16-.57,.29-1.09,0-1.62-.15-.28-.08-.58-.05-.84,.08-.49,.24-.97,.48-1.45,.07-.11-.1-.23-.16-.35-.11-.35,.16-.73-.78-1.08,.1-.02,.06-.12-.13-.18-.15-.47-.16-.94,.13-1.41-.1-.31-.16-.63,.67-.98,.46-.07-.04-.15,.2-.23,.24-.16,.07-.38,.29-.46,.08-.19-.49-.38-.25-.58-.34-.27-.13-.58,.34-.82-.47-.05-.16-.26,.07-.4,.15-.13,.08-.26,.29-.39,.3-.38,.03-.81,.3-1.13-.1-.28-.35-.59,.52-.83,.02-.12-.25-.27-.35-.42-.36-.21-.02-.42-.09-.63,.2-.23,.31-.54,.1-.82,.09-.06,0-.14-.2-.18-.14-.47,.63-.97,.19-1.46,.27-.15,.03-.37-.51-.43-.36-.2,.49-.3,.36-.51,0-.17-.3-.53-.36-.67-.05-.33,.7-.67,.41-1,.42-1.15,.05-2.29-.45-3.44-.5-.23,0-.48,.23-.69-.03-.14-.17-.3-.25-.45-.19-.24,.1-.49-.16-.74-.3-.32-.19-.6,.47-.93,.15-.24-.22-.5-.28-.74,0-.15,.17-.31,.21-.46,.06-.24-.24-.5-.22-.75-.15-.25,.06-.52-.25-.75,.11-.13,.21-.28,.36-.43,.35-.57-.05-1.14-.07-1.71-.2-.2-.04-.43,.21-.6-.28-.23,.72-.53,.01-.81-.02-.25-.02-.49,.62-.74,.36-.14-.15-.3-.18-.44-.06-.72,.6-1.48-.02-2.21,.21-.12,.04-.3-.13-.34,.03-.21,.85-.49-.07-.7,.27-.32,.5-.59,.16-.87-.28-.07-.11-.22-.12-.25,0-.17,.67-.42,.44-.64,.49-.54,.12-1.09-.34-1.61,.46-.12,.18-.32-.1-.49-.2-.08-.05-.2-.3-.22-.24-.35,1.12-.92-.68-1.29,.43-.06,.17-.28,.19-.33,.03-.21-.61-.35-.19-.57-.06-.52,.3-1.08-.58-1.6,.07-.05,.07-.17-.08-.22-.23-.13-.34-.23-.25-.37-.02-.13,.2-.35,.3-.46,.1-.17-.32-.25-.35-.45-.06-.18,.28-.48,.41-.66,.18-.62-.8-1.18,.31-1.77,.3-.1,0-.26,.24-.29,.13-.19-.65-.44-.33-.66-.37-.2-.03-.46-.14-.59,.16-.26,.63-.37-.59-.6-.19-.18,.33-.42,.92-.61,.44-.27-.68-.43,.49-.67,.1-.14-.22-.32-.18-.48-.31-.47-.38-.53-.35-1.07,.59-.03,.06-.08,.06-.12,.03-.16-.1-.32-.31-.48-.31-.2,0-.4,.27-.6,.23-.24-.06-.48-.41-.72-.47-.19-.05-.43,.37-.59,.19-.64-.73-1.31,.1-1.96,.07-.19,0-.33-.68-.58-.09-.09,.22-.4-.33-.61-.42-.33-.13-.66-1.1-1-.03-.02,.05-.14-.05-.15-.13-.1-.94-.32,1.18-.47,.3-.04-.24-.31-.17-.58-.21-.07-.01-.13,0-.2,.03-.15,.08-.33,.18-.5,.28-.09,.05-.18,.09-.27,.13l-.14,.05c-.07,.02-.03,.03-.21,.04-.84,.06-1.49,.22-2.22,.75-.63,.46-1.5,.52-1.86,1.44-.31,.79-.63,1.9-1.25,2.16-1.42,.6-.79,1.68-.75,2.44,.12,2.22,.89,4.22,2.93,5.48,.6,.37,1.11,.97,1.76,1.18,.4,.13,.87,.52,1.34,.4l.15-.03s.04-.01,.06-.02c.04,0,.08,0,.11,0,.08,.02,.15,.08,.22,.16,.34,.4,.71,.42,1.05,.75,.27,.26,.37-.52,.59-.22,.19,.27,.42-.04,.63,0,.94,.21,1.89-.14,2.84,.01,.25,.04,.49,.2,.73,.4,.26,.21,.57,1.08,.92,.16,.08-.22,.4,.36,.61,.42,.29,.08,.66,.33,.87-.05,.33-.6,.56,.47,.84,.08,.12-.17,.28-.18,.38-.43,.21-.57,.38-.82,.68-.33,.33,.55,.76,.17,1.13,.69,.15,.2,.41-.37,.62-.42,.74-.18,1.47-.02,2.23-.43,1.03-.56,2.12,.3,3.16-.37,.17-.11,.34-.02,.5,.17,.29,.37,.55-.07,.83-.22,.08-.04,.21-.24,.23-.16,.26,.85,.65,.69,.89,.38,.35-.46,.62,.58,.93,.1,.57-.87,1.18,.12,1.78,0,.17-.04,.36,.06,.51-.14,.47-.66,.95-.41,1.42-.16,.1,.06,.14,.21,.26-.03,.26-.55,.64,.32,.89-.55,.31,.7,.59,.19,.9-.05,.12-.09,.27,.81,.5,.13,.13-.38,.26,.74,.49,.13,.12-.32,.37-.28,.56-.31,.32-.06,.73,.29,.94-.15,.39-.84,.62,.57,.95,.16,.17-.22,.38,.31,.57,.17,.31-.24,.6-.43,.9,.13,.08,.16,.25,.28,.32,.16,.37-.74,.78-.51,1.17-.45,.42,.07,.87-.47,1.26,.45,.06,.15,.23,.04,.33-.06,.21-.19,.42-.37,.6-.71,.25-.51,.51,.31,.65,.07,.24-.41,.45-.23,.67-.25,.53-.06,1.1-.39,1.58,.08,.53,.52,.97,.04,1.45,.39,.41,.29,.84-.49,1.27-.02,.1,.11,.26,.31,.39,.22,.14-.08,.28-.25,.41-.17,.75,.45,.84,.52,1.31,.25,.12-.07,.24-.03,.36,.04,.22,.14,.43-.62,.67-.21,.46,.8,.97,.35,1.46,.35,.14,0,.27-.11,.39-.31,.22-.37,.45,.01,.68,.35,.3,.44,.54-.83,.87-.3,.09,.15,.28-.22,.41-.17,.19,.07,.36,.34,.55,.46,.07,.05,.19,0,.24-.14,.28-.73,.65-.48,.92-.27,.53,.42,1.03,.79,1.54-.06,.04-.06,.13-.03,.16,.06,.24,.77,.55,.3,.82,.43,.24,.11,.43-.29,.64-.44,.18-.13,.5,.6,.61,.38,.35-.71,.61,.45,.96,.1,.36-.37,.73-.53,1.12-.43,.27,.07,.54-.39,.72-.05,.36,.67,.73,.38,1.09,.43,.5,.07,1-.03,1.5,.04,.21,.03,.52,.64,.61,.42,.27-.68,.62-1.17,.81-.86,.32,.52,.67-.29,.81,.07,.26,.68,.35-.57,.5-.14,.27,.78,.61,.09,.9-.06,.34-.17,.66,.62,.98,.35,.13-.11,.27-.14,.4,0,.48,.53,.99,0,1.48,.19,.11,.04,.28-.57,.33-.4,.22,.7,.49,.33,.74,.39,.29,.07,.6,.14,.88-.02,.23-.13,.42,.35,.66-.44,.14-.48,.23,.55,.41,.34,.22-.26,.6-.16,.83,.05,.19,.17,.37,.01,.56,.09,.22,.09,.44-.64,.66-.11,.12,.29,.41,.26,.59,.08,.3-.31,.58-.49,.9-.49,.04,0,.08-.01,.13-.04,.07-.03,.25-.06,.36-.11,.25-.09,.45-.21,.48-.33,.18-.86,.94-1.25,1.45-1.3,1.29-.13,.54-1.39,1.2-1.77,.82-.47,.66-1.25,.66-1.98,0-1-.03-2,.02-3,.01-.26,.45-.63,.38-.74-.33-.53-1.14-.83-.88-1.63Z"/></svg>