<?xml version="1.0" encoding="UTF-8"?><svg id="EXPANDED_copy" xmlns="http://www.w3.org/2000/svg" viewBox="0 0 595.28 595.28"><defs><style>.cls-1{fill:#112874;}</style></defs><path class="cls-1" d="M455.98,282.89c-.31-.36-.72-.36-.59-1.93,.08-1.97-.16-2.75-.5-3.06-.33-.31-.72-.14-1.08-.18-.93-.08-1.86-.05-2.79-.25,.52-.52-.44-1.1-.54-1.56-.49-2.22-3.5-4.22-11.54-5.48-2.38-.37-4.37-.97-6.91-1.18-2.1-.18-4.7-.81-7.13-.07-4.41-.86-9.94-.78-14.8-1.2-3.01-.26-4.15,.52-6.57,.22-2.16-.27-4.63-.46-7.02-.5-10.54-.17-21.09-.34-31.64-.51-2.81-.04-5.42-.2-8.15-.4-2.88-.21-6.38-1.08-10.27-.16-.93,.22-4.46-.36-6.85-.42-3.25-.08-7.32-.33-9.65,.05-3.72,.6-6.28-.47-9.38-.08-1.35,.17-3.17,.18-4.18,.43-2.35,.57-4.23,.82-7.56,.33-3.73-.55-8.5-.17-12.65-.69-1.63-.2-4.55,.37-6.94,.42-8.25,.18-16.43,.02-24.82,.43-12.56,.61-25.8-.47-38.46,.59-4.34-.98-7.78,.14-11.62,.32-.9,.04-2.31,.24-2.58,.16-2.92-.85-7.22-.69-9.91-.38-3.95,.46-6.9-.58-10.35-.1-1.11,.15-2.25,.26-3.39,.34l-.43,.03h-.22l-.39,.03-1.55,.04c-1.03,.02-2.07,.04-3.1,.06-4.14,.05-8.35,.03-12.6,0-.02,3.51-.04,7.04,0,10.55,0,1.7,0,3.51,0,5.26,0,.44,0,.87,0,1.29v.59l.02,.35c.02,.46,.05,.89,.1,1.29,.66,5.27,.41,10.61,.16,15.87-.06,1.17-.21,1.6,.03,2.88,.55,2.87-.32,7.14,.55,9.89-.7,3.46-.19,6.59,.05,10.06,.09,1.3-.81,3-.13,5.55,.38,1.42-.74,2.94-.13,5.5,.32,1.33,.28,4.12,.31,6.28,.06,3.56-.29,8.19,.15,10.48,.84,4.33-.57,6.94-.16,10.54,.22,1.93,.19,4.26,.33,6.34,.24,3.42,.43,6.7-.13,10.01-.16,.95-.28,2.84-.16,3.55,.74,4.09,.51,8.68,.45,13.02-.07,4.66,.47,9.66-.45,14.02-.15,.71-.04,2.54,.06,3.72,.19,2.3,.37,4.74,.71,6.68,.51,2.85-.31,5.74-.07,7.31,.41,2.64,.23,5.05,.25,7.48,.05,2.96,.09,6.04,.14,9.07,.04,4.03,.05,7.96-.06,11.81,1.26,.04,2.47,.09,3.65,.16,2.26,.13,4.54,.17,6.76,.15,1.11-.02,2.2-.03,3.28-.05,.54-.01,1.07-.03,1.6-.04l1.11-.05c2.64-.14,5.21-.3,7.92-.12,4.62,.29,9.32-.49,14.14-.02,1.14,.11,2.87-.19,4.36-.28,1.52-.08,3.17-.25,4.59-.17q9.55,.52,17.28,.11c2.95,.65,5.7-.51,8.83-.03,6.42,.93,11.02,.16,22.72,.4,1.64-.34,3.28-.49,5.06-.51-.03-2.89,.25-5.54,.5-8.5,.11-1.28,.11-2.56,.07-3.8-.02-.62-.06-1.23-.11-1.84l-.07-.91c-.02-.27-.05-.4-.07-.61-.2-1.54-.38-3.12-.11-4.98,.15-1.04-.22-3.08-.17-4.56,.07-2.07,.34-4.03,.46-6.1,.05-.82,0-2.06-.14-2.65-.73-3.17-.48-7.26-.27-10.21,.42-5.94,.79-11.44-.06-17.17-.06-.43-.03-1.49,.06-1.8,.77-2.64,.3-6.11,.43-9.16,.11-2.66-.29-4.77-.44-7.12-.13-2.05,.6-5.56,.38-6.82-.69-3.86,.4-6.71,.12-10.41-.11-1.45-.05-2.91,.32-4.4,.38-1.47,1.03-2.86,1.78-4,.72-1.03,1.35-2.13,2.08-3.07,.34-.48,.75-.88,1.1-1.27,.4-.34,.78-.64,1.16-.84,1.4-.67,2.7-1.32,4.05-1.9l1.02-.41,1.05-.34,.27-.09,.36-.1,.73-.2,1.46-.39c5.38-1.43,10.78-2.86,16.15-4.29,2.3-.59,5.82-.9,6.72-1.37,2.73-1.44,6.56-2.45,8.66-2.7,3.58-.42,7.13-2.21,8.69-2.26,2.98-.1,3.66-1.57,5.37-1.58,3.08-.02,6.71-1.19,9.78-2.17,4.3-1.37,8.74-1.33,12.72-3.36,6-.57,12.23-2.99,18.34-4.4,1.23-.29,2.97-.87,3.61-.86,2.56,.04,5.41-1.11,8.08-1.77,3.16-.78,6.45-1.59,9.46-2.56,1.36-.44,2.68-.52,3.98-.75,2.16,2.16,4.37,4.37,6.63,6.63h0s.03,.04,.05,.06c.04,.05,.07,.11,.11,.17,.14,.24,.36,.27,.49,.03,.15-.27,.21-.57,.34-.48,.44,.32,.88,1.2,1.34,.4,.03-.06,.09,.12,.14,.14,.44,.15,.9,.13,1.32-.16,.44-.29,.84,0,1.25,.15,.22,.08,.44,.05,.65-.08,.38-.24,.75-.48,1.12-.07,.09,.1,.18,.16,.27,.11,.27-.16,.57,.78,.83-.1,.02-.06,.09,.13,.14,.15,.36,.16,.72-.13,1.09,.1,.24,.16,.48-.67,.76-.46,.05,.04,.11-.2,.17-.24,.12-.07,.3-.29,.36-.08,.14,.49,.3,.25,.44,.34,.21,.13,.45-.34,.63,.47,.04,.16,.2-.07,.31-.15,.1-.08,.2-.29,.3-.3,.29-.03,.62-.3,.87,.1,.22,.35,.46-.52,.64-.02,.09,.25,.21,.35,.32,.36,.16,.02,.32,.09,.49-.2,.18-.31,.42-.1,.63-.09,.05,0,.11,.2,.14,.14,.37-.63,.75-.19,1.12-.27,.11-.03,.29,.51,.33,.36,.16-.49,.23-.36,.4,0,.13,.3,.41,.36,.52,.05,.25-.7,.52-.41,.77-.42,.88-.05,1.77,.45,2.65,.5,.17,0,.37-.23,.54,.03,.11,.17,.23,.25,.35,.19,.18-.1,.38,.16,.57,.3,.25,.19,.46-.47,.72-.15,.18,.22,.38,.28,.57,0,.11-.17,.24-.21,.36-.06,.19,.24,.38,.22,.58,.15,.19-.06,.4,.25,.58-.11,.1-.21,.22-.36,.33-.35,.44,.05,.88,.07,1.32,.2,.15,.04,.33-.21,.47,.28,.05-.36,.27-.36,.48-.27,.21,.09,.44,.28,.66,.29,.39,.02,.7-.62,1.09-.36,.23,.15,.48,.18,.68,.06,.97-.6,2.22,.02,3.27-.21,.16-.04,.5,.13,.5-.03-.02-.85,.75,.07,.93-.27,.24-.5,.77-.16,1.42,.28,.16,.11,.4,.12,.38,0-.11-.67,.36-.44,.66-.49,.68-.12,1.83,.34,1.99-.46,.03-.18,.53,.1,.84,.2,.15,.05,.52,.3,.5,.24-.2-.56,.26-.39,.74-.22,.48,.17,.98,.35,.73-.21-.08-.17,.21-.19,.44-.03,.87,.61,.69,.19,.87,.06,.03-.02,.06-.03,.09-.04,.01-.04-.01-.1,0-.15,0-.1,0-.19,.02-.26,.03-.16,.09-.29,.14-.43,.1-.29,.16-.63-.16-1.28-.07-.13,.08-.16,.23-.12,.34,.1,.25-.12,.02-.52-.2-.35-.3-.74-.1-.74,.32,0,.35-.1,.06-.59-.28-.47-.41-.97-.18-1.06,.8-.37-.31-1.87-.29-2.64,0-.14-.24-.48-.13-.47,.65,.06,.33-.45,.37-.74,.03-.26,.14-.59-.16-.88-.63-.59,.59-.3,.19-.76-.33-.37-.92-.87-.44-.99,.68-.19-.49-.72-.1-.94,.22-.13,.18-.4,.31-.6,.38-.57,.35-.71-.59-1.54-.06-.05-.06-.12-.03-.17,.1-.2,.31-.41,.31-.63,0-.25-.27-.61-.23-.75,.06-.19,.41-.37,.47-.55,.05-.15-.37-.33-.19-.45,.73-.5-.1-1.01-.07-1.51,0-.14,.68-.26,.09-.45-.22-.07,.33-.31,.42-.47,.13-.25,1.1-.51,.03-.77-.05-.01,.05-.11,.13-.11,.94-.07-1.18-.24-.3-.36,.24-.03,.17-.24,.21-.45,.01-.05,0-.1-.03-.15l-.28-.38c-.05-.07-.09-.14-.13-.21l-.05-.11c-.02-.06-.03,0-.04-.19-.03-.45-.1-.85-.23-1.23,.45-.5,.89-1.02,1.28-1.52,.79-1.06,1.35-1.97,1.32-2.17-.08-.66,.43-1.79,.93-3.13,.27-.66,.58-1.35,.83-2.04,.27-.69,.57-1.34,.77-1.95,.59-1.52,.75-2.5,.79-3.12,.03-.62-.07-.89-.23-1.08Zm-65.38,18.97c-.43,.18-.89,.37-1.29,.55-1.94,.91-3.63,1.22-5.91,1.55-2,.29-5.08,1.08-6.86,1.81-1.97,.81-2.94,.86-4.74,1.25-6.21,1.34-12.55,2.12-18.87,4.65-.46,.18-1.34,.24-2.03,.4-6.22,1.51-12.76,2.78-18.58,4.63-6.05,1.93-11.71,3.14-17.54,4.55-3.07,.74-6.35,1.13-9.14,2.02-6.04,1.91-11.87,3.75-17.96,4.65-1.02,.41-2.09,.72-3.19,.98-.55,.12-1.11,.24-1.67,.37l-.21,.04-.28,.07-.58,.15-1.16,.31c-3.07,.89-6.05,2.36-8.2,4.51-.26,.27-1.58,.96-2.32,1.63-5.68,4.65-9.74,11.25-11.27,18.54-.23,1.22-.4,2.46-.41,3.71,0,.63,0,1.25,.02,1.88,.03,.55,.07,.92,.11,1.4,.16,1.81,.32,3.67,.21,5.67-.04,.74,.2,1.64,.24,2.51,.07,1.76,.29,4.29,.08,5.17-.49,2.09-.25,4.28-.34,6.41-.13,3.04,.34,6.45-.47,9.17-.16,.54,.07,2.95,.15,4.47,.08,1.49,.29,2.93,.3,4.4,.03,4.24,.3,9.02-.1,12.58-.41,3.68,.86,7.84-.38,10.54,.17,3.41-.19,6.83,.24,10.43,.31,2.52,.1,6.12,.09,9.11,0,.04-.2,.05-.14,.07,.3,.16,.36,.46,.34,.62-.23-.02-.44-.11-.6-.07-.02,0-.06-.02-.09-.07-.44-.05-.9-.11-1.33-.16-.92-.11-1.72-.21-2.06-.13-2.25,.49-3.38,.36-5.73,0-1.92-.3-5.86-.36-7.49-.05-3.68,.7-7.47,.41-11.15,.42-12.78,.05-25.57,.05-38.36,0-.84,0-1.71,.02-2.59,.05-.64,.02-1.28,.03-1.91,.05-.12,0-.26-.12-.03-.57-.15,.23-.35,.38-.53,.46-.13-.01-.11-.24,0-.41,.05-.07,.04-.11,.01-.16l-.03-.04-.03-.62-.08-1.26c-.1-1.68-.19-3.37-.03-5.23,.3-3.52,.3-7.52-.38-10.81,.58-3.37,.58-7.21,.49-10.98-.08-3.37,.42-7.24-.49-10.01,.06-7.44,.08-14.89,.22-22.3,.04-2.2-.21-4.76,.28-6.73-.72-2.53-.51-5.92-.48-9.02,.03-3.4-.96-6.78-.02-10.18-1.06-8.99-.25-18.5-.5-27.71-.04-1.3,.13-3.37-.03-3.81-.85-2.38,.07-5.45-.27-7.85-.5-3.55-.16-6.58,.28-9.71,.11-.75,.12-2.48,0-2.83-.67-1.95-.44-4.65-.49-7.14-.06-2.99,.02-6.02,.02-9.03v-.98l-.02-.24c-.01-.16-.04-.33-.07-.51-.07-.36-.19-.76-.39-1.31-.07-.19-.07-.38-.04-.54,.36,.05,.79,.18,1.1,.24,.26,.05,.68,.3,.69,.24,.11-.28,.39-.41,.7-.46-.05-.03,.87-.03,1.44-.03,.64,0,1.28,.02,1.93,.03,2.59,.05,5.18,.1,7.19-.46,.61-.17,3.07-.19,3.69-.03,2.33,.61,3.9,.19,6.41,.06,5.79-.3,12.04,.08,17.83-.57,.6-.07,1.87,.08,2.49,.23,1.48,.34,2.51,.25,4.16,.02,1.43-.2,3.96-.3,5.14-.1,1.92,.32,2.82,.35,4.96,.06,2.04-.28,5.39-.41,7.4-.18,6.93,.8,13.13-.31,19.69-.3,1.12,0,2.9-.24,3.25-.13,2.13,.65,4.87,.33,7.32,.37,2.21,.03,5.17,.14,6.53-.16,2.88-.63,4.15,.59,6.64,.19,2.02-.33,4.71-.92,6.82-.44,3.01,.68,4.81-.49,7.47-.1,1.52,.22,3.61,.18,5.39,.31,5.19,.38,5.89,.35,11.94-.59,.36-.06,.94-.06,1.37-.03,1.79,.1,3.57,.31,5.35,.31,2.23,0,4.5-.27,6.68-.23,2.7,.06,5.3,.41,8.01,.47,2.17,.05,4.78-.37,6.58-.19,7.19,.73,14.57,.4,21.87,.43,2.07,0,3.74,.68,6.45,.09,1.03-.22,4.45,.33,6.85,.42,3.69,.13,7.41,1.1,11.2,.03,.17-.05,1.53,.05,1.62,.13,1.07,.94,3.54-.68,5.2,.2,.51,.27,4.18,.15,7.58,.24,3.56-.16,8.14-.46,12.79-.55,3.31-.07,5.85-.22,8.73-.75,2.49-.46,5.89-.52,7.3-1.44,1.2-.79,2.49-1.9,4.92-2.16,.76-.08,1.36-.17,1.84-.27-.04,.1-.08,.2-.12,.29-.34,.74-.67,1.16-1,.64-.52-.75-.77-.08-1.16,.84-.17,.47-.35,1.01-.59,1.48-.21,.48-.42,.91-.67,1.15-.51,.53-.94,.67-1.46,.95-.25,.14-.5,.33-.76,.64-.28,.3-.6,.69-.94,1.27-1.1,1.65-2.13,2.09-3.3,2.82-1.03,.61-2.14,1.11-3.26,1.55-1.15,.38-2.28,.79-3.49,.98-.82,.18-1.64,.36-2.46,.54-.89,.2-1.78,.42-2.67,.64-1.78,.45-3.57,.96-5.33,1.52-3.49,1.1-6.93,2.26-10.56,3.26-2.92,2.19-6.4,1.41-9.91,2.58-3.32,1.1-7.76,3.28-11.08,2.61Zm45.69,4.76h.01s0,.01-.01,0Zm-6.81,1.51c.21-.03,.42-.04,.63-.06-.21,.06-.43,.13-.63,.06Zm1.75-.17s.09-.02,.14-.02c-.05,.06-.09,.05-.14,.02Zm2.03-.43c.09-.02,.18-.04,.27-.07,.11-.03,.21-.06,.32-.09-.19,.26-.39,.22-.59,.16Zm2.33-.07c0,.09-.32-.81-.13-.13,.09,.38-.26-.74-.12-.13,.07,.32,0,.28-.02,.31-.05,.06-.18-.29-.15,.15,.02,.84-.19-.57-.2-.16-.02,.22-.08-.31-.11-.17,.02,.12-.16,.23-.26,.23-.11,0-.21-.08-.32-.32,.34-.1,.69-.19,1.02-.29,.11-.03,.2-.06,.3-.09,.23,.55-.23-.32,.13,.55-.35-.7-.16-.19-.14,.05Zm.04-.61l.13-.04c.24,.45,.04,.26-.13,.04Zm.28-.09l.07-.02c.15,.22,.06,.15-.07,.02Zm.14-.05h.02s.02,.03-.02,0Zm.4,.26c-.13-.12-.23-.21-.31-.29l.04-.02s.08,.09,.11,.12c.04,.05,.24,.26,.16,.18Z"/><path class="cls-1" d="M170.82,208.54l.12,1.05c.02,.3,.05,.61,.07,.92,.04,.63,.07,1.26,.14,1.86,.24,1.97,.43,3.87-.13,5.77-.16,.55-.28,1.64-.16,2.05,.74,2.36,.51,5.01,.45,7.51-.07,2.69,.47,5.58-.45,8.09-.15,.41-.04,1.47,.06,2.15,.19,1.32,.37,2.73,.71,3.85,.51,1.64-.31,3.31-.07,4.22,.1,.38,.17,.75,.21,1.12,.02,.18,.03,.36,.04,.55v.27l.02,.41c0,1.13-.01,2.24-.02,3.35,.04,3.93,.23,7.92,.15,11.78,1.39,.03,2.71,.1,3.93,.22,2.55,.26,5.18,.15,7.62,0,1.23-.07,2.43-.14,3.62-.18l.7-.02h.57c.38,0,.77,.03,1.16,.07,2.67,.29,5.38-.49,8.16-.02,.66,.11,1.66-.19,2.52-.28,.88-.08,1.83-.25,2.65-.17,5.51,.52,5.5,.54,9.97,.11,1.7,.65,3.29-.51,5.1-.03,3.46,.93,7.32,.16,10.97,.4,1.77-.9,3.5-.42,5.31,0,1.94,.44,3.45-.83,5.59-.3,.6,.15,1.77-.22,2.63-.17,1.2,.07,2.33,.34,3.52,.46,.47,.05,1.19,0,1.53-.14,1.83-.73,4.19-.48,5.89-.27,1.74,.21,3.31,.41,5.05,.45,2.58,.04,5.19-.08,7.52-.5,.35-.06,1.3-.03,1.63,.06,1.41,.38,2.89,.46,4.33,.45,.36,0,.72-.01,1.08-.02h.54c.02-.18,0-.38,0-.56,0-.73,0-1.45,.05-2.12,.15-2.34-.21-4.53-.33-6.64-.05-.95,.12-2.13,.28-3.29,.03-.26,.1-.63,.16-.97,.03-.22,.05-.2,.07-.28l.06-.18c.07-.23,.1-.43,.06-.58-.13-.46-.1-.87,0-1.25,.09-.38,.22-.74,.39-1.07,.41-.66,.74-1.3,.97-2.09,.32-1.61,1.39-3.35,2.6-4.46,1.05-1.04,1.78-2.53,2.78-2.93,1.79-.62,3.08-1.77,4.7-2.48l1.69-.64c.58-.15,1.15-.37,1.74-.5l.89-.18c.3-.06,.56-.13,1-.19l2.38-.35c1.36-.18,3.44,.11,3.97-.2,1.61-.94,3.87-1.28,5.11-1.16,2.11,.2,4.21-.95,5.13-.73,1.76,.41,2.16-.91,3.17-.63,1.82,.5,3.96-.02,5.78-.45,2.54-.6,5.16,.18,7.51-1.13,3.54,.46,7.22-.84,10.83-1.19,.73-.07,1.75-.35,2.13-.23,1.51,.47,3.19-.16,4.77-.35,1.87-.23,3.81-.46,5.58-.9,1.44-.35,2.82,.42,4.17-.6,.94-.7,1.8,.62,3.21-.35,.56-.38,2.83-.78,3.55-.63,1.64,.36,3.21-.2,4.79-.35,.35-.03,.7-.08,1.05-.14l.26-.04,.37-.07,.77-.15c1.04-.16,2.06-.4,3.16-.47,.6-.04,1.58-.36,2.57-.79,.97-.48,1.99-1.04,2.65-1.6,2.31-1.8,4.28-3.76,6.18-6.13,.96-1.11,2.06-3.43,1.89-3.7-.43-.96,.29-3.26,.66-4.81,.3-.97,.3-1.61,.25-2-.06-.4-.2-.58-.37-.7-.34-.24-.73-.26-.79-1.24-.05-1.22-.37-1.7-.7-1.89-.34-.19-.72-.1-1.08-.12-.9-.06-1.81-.06-2.71-.17-.1-.32-.31-.64-.35-.92-.28-2.22-2.02-4.22-6.66-5.48-1.37-.37-2.52-.97-3.99-1.18-1.21-.18-2.71-.81-4.11-.07-2.55-.86-5.74-.78-8.54-1.2-1.74-.26-2.4,.52-3.79,.22-1.24-.27-2.67-.46-4.05-.5-6.08-.17-12.17-.34-18.26-.51-1.62-.04-3.13-.2-4.7-.4-1.66-.21-3.68-1.08-5.93-.16-.54,.22-2.57-.36-3.95-.42-1.87-.08-4.22-.33-5.57,.05-2.15,.6-3.62-.47-5.41-.08-.78,.17-1.83,.18-2.41,.43-1.35,.57-2.44,.82-4.36,.33-2.15-.55-4.9-.17-7.3-.69-.94-.2-2.63,.37-4.01,.42-4.76,.18-9.48,.02-14.32,.43-7.25,.61-14.89-.47-22.19,.59-2.5-.98-4.49,.14-6.7,.32-.52,.04-1.33,.24-1.49,.16-1.69-.85-4.17-.69-5.72-.38-2.28,.46-3.98-.58-5.97-.1-3.65,.87-7.62,.38-11.45,.5-1.1,.04-2.35-.06-3.27,.14-3.04,.66-6.12,.41-9.16,.16-.68-.06-.92-.21-1.66,.03-1.66,.55-4.12-.32-5.71,.55-2-.7-3.8-.19-5.8,.05-.38,.05-.81-.16-1.33-.29-.26-.06-.55-.11-.86-.1-.18,0-.27,.03-.54,.07-.29,.04-.59,.1-.9,.19-.68,.19-1.41,0-2.31-.15-.89-.16-1.98-.29-3.14,.02-1.19,.32-3.91,.28-5.98,.31-1.29,.02-2.78-.01-4.25-.04-.05,2.29-.08,4.57,.2,6.12,.42,2.34,.28,3.84,.08,5.37-.2,1.5-.45,3.02-.25,4.78Zm88.55,39.64h0s0,0,0,0Zm-72.54-40.87c.18,.03,.35,.05,.51,.06h.73l1.49-.05c.75-.04,1.95,.13,2.2-.03,1.37-.85,3.15,.07,4.53-.27,2.05-.5,3.8-.16,5.6,.28,.43,.11,1.43,.12,1.63,0,1.12-.67,2.68-.44,4.12-.49,3.45-.12,7,.34,10.36-.46,.75-.18,2.09,.1,3.14,.2,.5,.05,1.29,.3,1.41,.24,2.28-1.12,5.95,.18,8.27-.93,.35-.17,1.77-.19,2.13-.03,1.35,.61,2.25,.19,3.7,.06,3.34-.3,6.95,.08,10.29-.57,.35-.07,1.08,.08,1.44,.23,.85,.34,1.45,.25,2.4,.02,.82-.2,2.29-.3,2.97-.1,1.11,.32,1.63,.35,2.86,.06,1.18-.28,3.11-.41,4.27-.18,4,.8,7.58-.31,11.36-.29,.64,0,1.67-.24,1.88-.13,1.23,.65,2.81,.33,4.22,.37,1.28,.03,2.98,.14,3.77-.16,1.66-.63,2.39,.59,3.83,.19,1.17-.33,2.72-.92,3.93-.44,1.73,.68,2.77-.49,4.31-.1,.88,.22,2.09,.18,3.11,.31,3,.38,3.4,.35,6.89-.59,.21-.06,.54-.06,.79-.03,1.04,.1,2.06,.31,3.09,.31,1.29,0,2.6-.27,3.86-.23,1.56,.06,3.06,.41,4.62,.47,1.25,.05,2.76-.37,3.8-.19,4.15,.73,8.41,.4,12.62,.43,1.19,0,2.16,.68,3.72,.09,.6-.22,2.57,.33,3.95,.42,2.13,.13,4.28,1.1,6.46,.03,.1-.05,.88,.05,.94,.13,.62,.94,2.04-.68,3,.2,.29,.27,2.41,.15,4.37,.23,2.05-.16,4.7-.46,7.38-.55,1.91-.07,3.37-.22,5.04-.75,.53-.17,1.14-.29,1.74-.41-.35,.32-.74,.49-1.16,.71-1.11,.61-2.23,1.09-3.32,1.5-1.09,.41-2.14,.75-3.26,1.12l-.21,.08-.39,.09-.77,.19-1.54,.37c-1.03,.24-2.08,.47-3.15,.65-1.72,1.65-3.78,.29-5.85,.84-1.96,.51-4.58,1.89-6.54,.67-.25,.11-.52,.21-.76,.32-1.14,.56-2.14,.57-3.49,.51-1.18-.06-3,.19-4.05,.61-1.16,.46-1.73,.34-2.8,.42-3.67,.25-7.41-.06-11.14,1.34-.27,.1-.79,0-1.2,.05-3.67,.42-7.54,.54-10.97,1.37-3.57,.86-6.91,1.08-10.36,1.47-1.81,.2-3.75,.03-5.4,.42-1.78,.42-3.53,.83-5.29,1.12-1.16,.24-2.34,.41-3.51,.66-1.16,.29-2.35,.45-3.52,.77-1.51,.84-3.19,1.46-4.84,2.21-.8,.41-1.6,.85-2.34,1.35-.71,.53-1.35,1.15-1.86,1.86-.14,.16-.89,.55-1.31,.91-3.2,2.6-5.96,5.75-8.14,9.31-.76,1.18-1.14,2.55-1.55,3.93-.2,.69-.32,1.42-.52,2.14-.2,.72-.4,1.44-.61,2.21-.17,.56-.09,1.3-.2,1.97-.07,.69-.11,1.53-.17,2.27v.09s-.03,.03-.07,.03c-.49-.03-.25,.1-.34,.16-.06,.01,.02,.13,.02,.2,.03,.09-.15-.01-.5-.42-.13-.16,.03,.07,.04,.15,.02,.08,.06,.29,0,.3-.04,0-.07,.03-.11,.05l-.07,.03c.06,0-.21,0-.34,.01h-.47c-1.25,.03-2.46,0-3.49-.2-2.12-.41-4.52,.86-6.08-.38-1.97,.17-3.94-.19-6.02,.24-1.47,.31-3.5,.1-5.28,.09-.4,0-.91-.2-1.19-.14-3.05,.63-6.25,.19-9.37,.27-.93,.03-2.39-.51-2.78-.36-1.3,.49-1.95,.36-3.31,0-1.11-.3-3.38-.36-4.32-.05-2.12,.7-4.31,.41-6.44,.42l-11.07,.04-10.7-.04c-.06,0-.15,.1-.22,.09-.07,0-.11-.12,.16-.57-.23,.34-.47,.5-.6,.54-.03-.03,0-.13,.08-.24,.1-.13-.02-.1-.12-.13-.1-.02-.19-.11-.03-.22l.1-.07c.03-.06,.05,.09,.06-.29,.03-.53,.04-1.07,.01-1.6-.05-1.07-.22-2.12-.56-3.07,.58-1.94,.58-4.16,.49-6.34-.08-1.95,.42-4.18-.49-5.78,.06-4.29,.08-8.59,.22-12.87,.04-1.27-.21-2.75,.28-3.88-.72-1.46-.51-3.42-.48-5.2,.02-.12-.22-.25-.35-.45-.13-.18-.14-.4,.33-.24-.27-.32-.42-.66-.5-.96,.23-.11,.64-.06,.99-.01Z"/></svg>